<?xml version="1.0" standalone="no"?>
<!DOCTYPE svg PUBLIC "-//W3C//DTD SVG 20010904//EN"
 "http://www.w3.org/TR/2001/REC-SVG-20010904/DTD/svg10.dtd">
<svg version="1.0" xmlns="http://www.w3.org/2000/svg"
 width="1280.000000pt" height="1280.000000pt" viewBox="0 0 1280.000000 1280.000000"
 preserveAspectRatio="xMidYMid meet">
<metadata>
Created by potrace 1.11, written by Peter Selinger 2001-2013
</metadata>
<g transform="translate(0.000000,1280.000000) scale(0.100000,-0.100000)"
fill="#000000" stroke="none">
<path d="M5850 12789 c-864 -34 -1799 -174 -2077 -309 -70 -35 -94 -54 -170
-136 -111 -120 -140 -164 -149 -220 -7 -49 -31 -73 -94 -92 -98 -31 -279 -72
-319 -72 -102 0 -339 -73 -501 -155 -228 -115 -311 -206 -397 -434 -83 -222
-120 -600 -109 -1136 3 -165 2 -363 -2 -440 l-7 -140 -85 0 c-67 -1 -95 -5
-131 -23 -171 -83 -445 -427 -560 -701 -120 -286 -214 -889 -195 -1244 21
-399 209 -828 564 -1285 l64 -82 -83 -138 c-102 -170 -187 -300 -273 -417
-104 -142 -133 -209 -147 -340 -16 -143 -15 -1083 0 -1420 15 -325 38 -458
158 -945 141 -574 283 -1041 355 -1170 59 -107 188 -233 293 -287 93 -48 196
-79 295 -89 l69 -6 52 -93 c65 -116 176 -254 243 -305 28 -21 132 -82 231
-136 99 -54 293 -174 431 -265 257 -171 401 -254 675 -389 243 -119 343 -149
629 -189 252 -35 538 -60 910 -81 102 -6 223 -15 270 -20 258 -30 1477 -41
2180 -20 1012 31 1610 141 2103 386 311 155 479 301 561 486 29 65 63 259 72
413 l7 110 39 43 c77 84 128 255 128 428 l0 92 123 61 c346 172 614 408 689
604 10 27 25 95 33 151 47 336 43 1517 -6 1846 -53 358 -262 569 -602 607
l-68 8 205 214 c296 308 304 320 331 498 53 350 9 1542 -111 3008 -39 477
-109 726 -277 974 -63 94 -192 229 -264 277 -110 73 -308 124 -484 124 l-77 0
-6 58 c-38 317 -164 741 -344 1156 -85 193 -116 222 -275 250 -131 23 -153 39
-210 152 -57 114 -227 217 -574 348 -804 305 -996 366 -1308 415 -416 65
-1187 95 -1805 70z m688 -106 c-86 -2 -230 -2 -320 0 -90 1 -19 3 157 3 176 0
249 -2 163 -3z m-575 -10 c-40 -2 -107 -2 -150 0 -43 1 -10 3 72 3 83 0 118
-2 78 -3z m970 0 c-40 -2 -106 -2 -145 0 -40 1 -8 3 72 3 80 0 112 -2 73 -3z
m-1250 -10 c-24 -2 -62 -2 -85 0 -24 2 -5 4 42 4 47 0 66 -2 43 -4z m1420 0
c-18 -2 -48 -2 -65 0 -18 2 -4 4 32 4 36 0 50 -2 33 -4z m-1595 -10 c-27 -2
-69 -2 -95 0 -27 2 -5 3 47 3 52 0 74 -1 48 -3z m1852 -8 l105 -14 -85 6 c-47
3 -119 9 -160 13 -69 6 -71 7 -20 8 30 0 102 -6 160 -13z m-2022 -2 c-15 -2
-42 -2 -60 0 -18 2 -6 4 27 4 33 0 48 -2 33 -4z m-130 -10 c-21 -2 -57 -2 -80
0 -24 2 -7 4 37 4 44 0 63 -2 43 -4z m-145 -10 c-13 -2 -33 -2 -45 0 -13 2 -3
4 22 4 25 0 35 -2 23 -4z m2455 0 c-10 -2 -26 -2 -35 0 -10 3 -2 5 17 5 19 0
27 -2 18 -5z m-2529 -7 c-2 -2 -35 -6 -74 -9 -45 -3 -58 -3 -35 2 37 9 116 14
109 7z m2646 -7 c20 -5 9 -6 -30 -2 -33 3 -62 7 -64 9 -8 7 63 2 94 -7z
m-2796 -13 c-2 -2 -31 -6 -64 -9 -39 -4 -50 -3 -30 2 31 9 102 14 94 7z m2999
-26 c139 -33 334 -91 328 -97 -2 -2 -55 12 -117 30 -93 29 -219 60 -364 90
-17 4 -17 5 3 6 13 0 80 -13 150 -29z m-3163 -1 c-51 -10 -92 -10 -50 1 17 4
44 8 60 8 25 0 24 -2 -10 -9z m-92 -16 c-7 -2 -21 -2 -30 0 -10 3 -4 5 12 5
17 0 24 -2 18 -5z m-60 -10 c-7 -2 -19 -2 -25 0 -7 3 -2 5 12 5 14 0 19 -2 13
-5z m-98 -19 c-33 -7 -69 -13 -80 -12 -27 0 83 26 115 26 14 0 -2 -6 -35 -14z
m-150 -29 c-27 -7 -59 -13 -70 -13 -11 0 3 6 30 13 28 7 59 13 70 13 11 0 -2
-6 -30 -13z m-200 -46 c-60 -15 -114 -27 -120 -25 -12 3 183 54 210 54 11 0
-29 -13 -90 -29z m4238 -24 c59 -21 106 -40 104 -42 -5 -4 -229 75 -237 84 -6
7 -7 8 133 -42z m-4444 -34 c-80 -29 -134 -67 -225 -163 -61 -64 -84 -96 -84
-120 0 -11 85 -103 193 -211 195 -193 274 -286 384 -452 66 -99 128 -205 120
-205 -3 0 -20 26 -38 58 -121 212 -249 374 -476 598 -116 115 -193 199 -193
211 0 10 7 30 16 43 23 34 140 154 187 192 37 30 146 77 177 77 8 0 -19 -13
-61 -28z m4689 -53 c46 -17 81 -32 79 -34 -4 -4 -199 65 -207 73 -7 7 27 -3
128 -39z m152 -60 c10 -6 7 -7 -10 -2 -14 3 -32 11 -40 16 -10 6 -7 7 10 2 14
-3 32 -11 40 -16z m105 -39 c22 -11 29 -16 15 -13 -14 4 -43 15 -65 25 -22 11
-29 16 -15 13 14 -4 43 -15 65 -25z m105 -41 c10 -6 7 -7 -10 -2 -14 3 -32 11
-40 16 -10 6 -7 7 10 2 14 -3 32 -11 40 -16z m50 -18 c8 -5 11 -10 5 -10 -5 0
-17 5 -25 10 -8 5 -10 10 -5 10 6 0 17 -5 25 -10z m50 -20 c8 -5 11 -10 5 -10
-5 0 -17 5 -25 10 -8 5 -10 10 -5 10 6 0 17 -5 25 -10z m95 -40 c33 -16 56
-29 50 -29 -5 0 -37 13 -70 29 -33 15 -55 28 -50 28 6 0 37 -12 70 -28z m140
-63 c47 -26 66 -44 87 -83 15 -27 27 -53 27 -59 0 -5 -13 15 -29 46 -25 49
-37 60 -97 92 -37 20 -63 36 -58 37 6 0 37 -15 70 -33z m-5619 -199 c171 -158
291 -298 407 -476 68 -103 142 -232 134 -232 -3 0 -22 30 -43 68 -55 98 -157
252 -227 340 -67 86 -231 257 -319 334 l-57 49 -43 -24 c-24 -14 -54 -28 -68
-31 -14 -4 -2 4 26 18 28 13 55 29 58 35 14 22 33 10 132 -81z m5792 -85 c48
-122 75 -206 53 -158 -6 11 -31 74 -57 140 -25 66 -48 126 -51 133 -3 6 -3 12
0 12 3 0 28 -57 55 -127z m-6038 99 c0 -4 52 -55 116 -112 117 -105 204 -203
286 -320 55 -80 91 -140 84 -140 -3 0 -18 21 -33 48 -85 144 -213 292 -390
450 -51 45 -86 82 -78 82 8 0 15 -4 15 -8z m-198 -56 c97 -55 159 -104 277
-219 106 -103 180 -193 233 -282 50 -84 188 -362 241 -486 47 -110 147 -393
146 -412 0 -7 -26 62 -58 153 -71 204 -118 315 -228 534 -111 222 -175 318
-297 444 -124 128 -212 200 -313 258 -69 39 -85 44 -139 44 -51 0 -179 -26
-269 -55 -17 -5 -17 -5 -4 4 32 21 206 60 269 61 59 0 73 -4 142 -44z m-452
-38 c-193 -84 -294 -141 -363 -207 -58 -54 -127 -198 -166 -344 -11 -40 -20
-62 -20 -50 -1 35 55 195 97 279 56 110 131 178 282 254 78 40 171 79 185 79
6 0 -1 -5 -15 -11z m6870 -89 c12 -8 10 -9 -8 -4 -20 6 -21 4 -12 -20 5 -14
10 -29 10 -33 -1 -10 -17 20 -24 46 -8 24 8 30 34 11z m80 -19 c20 -6 21 -8 5
-8 -11 0 -31 4 -45 8 -20 6 -21 8 -5 8 11 0 31 -4 45 -8z m139 -113 c47 -97
146 -366 137 -374 -2 -2 -25 58 -50 134 -26 76 -68 181 -94 233 -41 83 -51 96
-77 101 l-30 7 32 1 c30 1 33 -3 82 -102z m-210 18 c0 -5 -4 -3 -9 5 -5 8 -9
22 -9 30 0 16 17 -16 18 -35z m-110 -30 c0 -5 -4 -3 -9 5 -5 8 -9 22 -9 30 0
16 17 -16 18 -35z m130 -30 c0 -5 -4 -3 -9 5 -5 8 -9 22 -9 30 0 16 17 -16 18
-35z m-110 -30 c0 -5 -4 -3 -9 5 -5 8 -9 22 -9 30 0 16 17 -16 18 -35z m130
-30 c0 -5 -4 -3 -9 5 -5 8 -9 22 -9 30 0 16 17 -16 18 -35z m-80 -129 c0 -6
-11 20 -25 58 -13 39 -24 75 -23 80 0 6 11 -20 25 -58 13 -39 24 -75 23 -80z
m119 4 c0 -8 -8 8 -18 35 -10 28 -18 57 -18 65 0 8 8 -7 18 -35 10 -27 18 -57
18 -65z m-60 -200 c0 -8 -13 26 -29 75 -16 50 -28 95 -28 100 1 14 57 -157 57
-175z m90 100 c0 -8 -6 1 -13 20 -7 19 -13 42 -13 50 0 8 6 -1 13 -20 7 -19
13 -42 13 -50z m-5761 -73 c57 -100 137 -276 130 -284 -3 -2 -19 32 -36 76
-28 67 -102 209 -166 317 -15 26 -15 27 0 9 9 -11 41 -64 72 -118z m364 -48
c63 -126 153 -338 147 -345 -2 -2 -24 45 -47 104 -24 59 -72 164 -107 235 -35
70 -62 127 -59 127 3 0 32 -55 66 -121z m5459 -88 c28 -100 50 -185 47 -187
-2 -2 -25 74 -52 168 -59 215 -59 214 -52 208 3 -3 29 -88 57 -189z m208 69
c0 -8 -6 1 -13 20 -7 19 -13 42 -13 50 0 8 6 -1 13 -20 7 -19 13 -42 13 -50z
m-7817 -1 c-5 -30 -9 -42 -10 -28 -1 30 10 92 15 86 3 -2 0 -28 -5 -58z m2043
-16 c65 -130 136 -303 196 -479 33 -97 60 -181 59 -188 0 -6 -31 77 -68 184
-66 193 -131 351 -197 483 -19 37 -32 67 -29 67 2 0 20 -30 39 -67z m5435 -13
c0 -9 -4 -8 -9 5 -5 11 -9 27 -9 35 0 9 4 8 9 -5 5 -11 9 -27 9 -35z m56 -194
c25 -92 45 -172 43 -177 -2 -5 -23 64 -47 153 -55 202 -55 204 -48 198 3 -3
26 -81 52 -174z m323 94 c0 -8 -6 1 -13 20 -7 19 -13 42 -13 50 0 8 6 -1 13
-20 7 -19 13 -42 13 -50z m-7877 -26 c-5 -58 -9 -73 -10 -43 -1 48 9 142 15
136 2 -2 0 -44 -5 -93z m7904 -50 c9 -31 14 -58 12 -60 -2 -2 -9 15 -16 38 -7
24 -15 51 -17 61 -3 9 -3 17 0 17 2 0 12 -25 21 -56z m-5921 -124 c3 -14 -2
-7 -13 15 -10 22 -21 51 -25 65 -3 14 2 7 13 -15 10 -22 21 -51 25 -65z
m-1997 -37 c-2 -21 -4 -4 -4 37 0 41 2 58 4 38 2 -21 2 -55 0 -75z m7727 -11
c15 -57 26 -106 23 -108 -4 -4 -57 192 -57 210 0 21 9 -5 34 -102z m250 -33
c3 -19 -5 0 -19 41 -14 41 -24 80 -24 85 1 16 36 -88 43 -126z m-5600 -33 c15
-43 25 -80 23 -83 -2 -2 -16 31 -30 74 -41 124 -40 120 -29 103 6 -8 22 -50
36 -94z m-339 4 c14 -40 23 -75 21 -77 -2 -2 -14 26 -26 64 -13 37 -25 75 -28
83 -3 8 -2 12 1 9 4 -3 18 -39 32 -79z m-2048 -722 c-1 -139 -2 -26 -2 252 0
278 1 391 2 253 2 -139 2 -367 0 -505z m7657 635 c14 -56 26 -108 25 -115 -1
-13 -58 198 -59 216 0 25 11 -8 34 -101z m365 -23 c0 -8 -7 5 -15 30 -7 25
-13 52 -13 60 0 8 7 -5 15 -30 7 -25 13 -52 13 -60z m-200 -180 c-1 -8 -14 35
-30 95 -16 61 -28 117 -28 125 1 8 14 -34 30 -95 16 -60 28 -117 28 -125z
m-5715 118 c3 -16 5 -28 2 -28 -4 0 -36 95 -36 107 1 12 26 -47 34 -79z m325
27 c0 -5 -4 -3 -9 5 -5 8 -9 22 -9 30 0 16 17 -16 18 -35z m5615 -58 c9 -38
16 -76 15 -85 -1 -15 -38 131 -39 152 0 24 10 -5 24 -67z m-5579 -55 c15 -52
25 -95 23 -98 -3 -2 -15 33 -28 78 -32 117 -34 124 -27 118 3 -3 17 -47 32
-98z m-298 -129 c-5 -4 -58 160 -56 173 1 5 14 -31 30 -80 16 -49 28 -90 26
-93z m5542 77 c53 -223 112 -517 110 -555 -1 -11 -14 48 -29 130 -25 131 -68
332 -100 460 -10 43 -12 61 -6 54 2 -2 13 -42 25 -89z m-5740 10 c0 -9 -4 -8
-9 5 -5 11 -9 27 -9 35 0 9 4 8 9 -5 5 -11 9 -27 9 -35z m390 -10 c0 -9 -4 -8
-9 5 -5 11 -9 27 -9 35 0 9 4 8 9 -5 5 -11 9 -27 9 -35z m5479 -60 c0 -9 -3
-7 -8 5 -5 11 -8 29 -8 40 0 16 2 15 8 -5 4 -14 8 -32 8 -40z m229 38 c-3 -8
-6 -5 -6 6 -1 11 2 17 5 13 3 -3 4 -12 1 -19z m-6037 -173 c28 -98 49 -183 47
-188 -1 -4 -24 70 -51 165 -61 216 -60 214 -53 208 3 -3 29 -86 57 -185z m354
105 c4 -24 3 -29 -3 -15 -4 11 -11 36 -15 55 -4 24 -3 29 3 15 4 -11 11 -36
15 -55z m5693 13 c-3 -10 -5 -4 -5 12 0 17 2 24 5 18 2 -7 2 -21 0 -30z
m-5580 -5 c-3 -8 -6 -5 -6 6 -1 11 2 17 5 13 3 -3 4 -12 1 -19z m5361 -63 c0
-16 -2 -15 -8 5 -4 14 -8 34 -8 45 0 16 2 15 8 -5 4 -14 8 -34 8 -45z m-5669
5 c0 -9 -4 -8 -9 5 -5 11 -9 27 -9 35 0 9 4 8 9 -5 5 -11 9 -27 9 -35z m334
-35 c4 -25 4 -33 -2 -20 -4 11 -11 38 -14 60 -4 25 -4 33 2 20 4 -11 11 -38
14 -60z m5576 -14 c2 -54 -6 -32 -12 34 -4 39 -3 50 2 30 5 -16 9 -45 10 -64z
m386 44 c168 -42 250 -88 362 -202 216 -221 334 -517 373 -938 75 -816 140
-2039 140 -2620 0 -429 -20 -570 -96 -670 -61 -83 -343 -384 -442 -474 l-82
-73 0 62 0 62 -55 -4 c-44 -2 -55 0 -55 12 0 8 -5 71 -10 139 -12 149 -35 613
-50 991 -31 807 -50 1139 -81 1435 -13 118 -36 262 -45 277 -4 6 -13 63 -20
127 -7 64 -27 222 -43 351 -17 129 -40 318 -51 420 -65 587 -127 1102 -136
1131 -4 14 7 14 109 3 62 -6 144 -20 182 -29z m-6088 -7 c-3 -8 -6 -5 -6 6 -1
11 2 17 5 13 3 -3 4 -12 1 -19z m-172 -106 c15 -52 25 -95 23 -98 -3 -2 -15
33 -28 78 -32 117 -34 124 -27 118 3 -3 17 -47 32 -98z m182 66 c-3 -8 -6 -5
-6 6 -1 11 2 17 5 13 3 -3 4 -12 1 -19z m5478 -71 c9 -49 15 -90 13 -93 -5 -4
-38 153 -38 177 0 28 8 -1 25 -84z m-5446 -57 c0 -8 -7 8 -15 35 -7 28 -13 57
-13 65 0 8 7 -7 15 -35 7 -27 13 -57 13 -65z m129 -55 c0 -11 -8 14 -19 55
-10 41 -18 82 -17 90 1 21 36 -121 36 -145z m5539 98 c-3 -10 -5 -2 -5 17 0
19 2 27 5 18 2 -10 2 -26 0 -35z m21 -148 c0 -22 -3 -18 -9 15 -4 25 -7 61 -7
80 1 29 2 26 8 -15 5 -27 8 -63 8 -80z m-5670 15 c0 -22 -1 -22 -8 5 -4 17 -8
39 -8 50 0 16 2 15 8 -5 4 -14 8 -36 8 -50z m-169 -95 c-1 -15 -39 108 -38
125 0 8 9 -14 20 -50 10 -36 19 -69 18 -75z m5641 2 c12 -70 20 -132 18 -138
-3 -9 -48 240 -48 265 0 29 10 -14 30 -127z m-5843 81 c-3 -8 -6 -5 -6 6 -1
11 2 17 5 13 3 -3 4 -12 1 -19z m501 -53 c0 -16 -2 -15 -8 5 -4 14 -8 36 -8
50 0 22 1 22 8 -5 4 -16 8 -39 8 -50z m-465 -75 c6 -33 6 -33 -7 5 -7 22 -16
56 -19 75 -6 33 -6 33 7 -5 7 -22 16 -56 19 -75z m355 40 c0 -22 -1 -22 -8 5
-4 17 -8 39 -8 50 0 16 2 15 8 -5 4 -14 8 -36 8 -50z m5659 -17 c-2 -16 -4 -5
-4 22 0 28 2 40 4 28 2 -13 2 -35 0 -50z m-5507 -167 c17 -104 29 -198 27
-210 -4 -18 -4 -17 -6 4 0 14 -15 106 -31 204 -30 182 -33 203 -26 195 2 -2
18 -89 36 -193z m-305 57 c4 -21 5 -36 2 -33 -6 7 -37 128 -36 143 1 16 25
-63 34 -110z m162 65 c-3 -7 -5 -2 -5 12 0 14 2 19 5 13 2 -7 2 -19 0 -25z
m5672 -112 c2 -66 -6 -35 -12 49 -4 60 -3 69 3 35 5 -25 9 -63 9 -84z m-321
19 c0 -25 -2 -24 -9 10 -10 51 -10 92 1 50 4 -16 8 -43 8 -60z m-5701 53 c-3
-8 -6 -5 -6 6 -1 11 2 17 5 13 3 -3 4 -12 1 -19z m360 -15 c-3 -10 -5 -4 -5
12 0 17 2 24 5 18 2 -7 2 -21 0 -30z m-298 -233 c-1 -8 -14 35 -30 95 -16 61
-28 117 -28 125 1 8 14 -34 30 -95 16 -60 28 -117 28 -125z m308 173 c-3 -10
-5 -4 -5 12 0 17 2 24 5 18 2 -7 2 -21 0 -30z m-1759 20 c-103 -2 -274 -2
-380 0 -106 1 -22 2 187 2 209 0 296 -1 193 -2z m7220 -78 c0 -25 -2 -24 -9
10 -10 51 -10 92 1 50 4 -16 8 -43 8 -60z m-7830 68 c-21 -2 -55 -2 -75 0 -21
2 -4 4 37 4 41 0 58 -2 38 -4z m1220 0 c-64 -2 -172 -2 -240 0 -68 1 -15 3
117 3 132 0 187 -2 123 -3z m-1345 -10 c-7 -2 -19 -2 -25 0 -7 3 -2 5 12 5 14
0 19 -2 13 -5z m1600 0 c-24 -2 -62 -2 -85 0 -24 2 -5 4 42 4 47 0 66 -2 43
-4z m746 -103 c0 -8 -7 8 -15 35 -7 28 -13 57 -13 65 0 8 7 -7 15 -35 7 -27
13 -57 13 -65z m-584 90 c12 -4 -7 -6 -45 -3 -36 3 -67 7 -69 9 -9 8 95 2 114
-6z m6093 -145 c0 -11 -6 9 -14 45 -7 36 -13 74 -12 85 0 11 6 -9 14 -45 7
-36 13 -74 12 -85z m-6011 108 c22 -16 60 -50 83 -78 46 -53 114 -187 124
-245 4 -20 -4 -8 -17 30 -52 143 -134 257 -217 301 -19 10 -30 18 -24 19 6 0
29 -12 51 -27z m660 -10 c-3 -10 -5 -4 -5 12 0 17 2 24 5 18 2 -7 2 -21 0 -30z
m-902 -3 c162 -13 201 -27 261 -92 96 -104 122 -183 169 -503 144 -977 205
-1536 205 -1870 0 -325 -25 -404 -178 -561 -62 -64 -107 -99 -157 -126 -128
-66 -117 -65 -805 -79 -643 -12 -850 -9 -1099 17 -164 17 -343 49 -381 69 -14
7 -58 47 -98 89 -262 276 -457 683 -528 1103 -20 118 -23 412 -5 553 63 497
245 925 513 1205 62 66 106 102 143 120 82 38 230 68 440 89 83 9 1386 -4
1520 -14z m6564 -104 c2 -66 -6 -35 -12 49 -4 60 -3 69 3 35 5 -25 9 -63 9
-84z m-5652 47 c-3 -10 -5 -4 -5 12 0 17 2 24 5 18 2 -7 2 -21 0 -30z m5461
-58 c0 -25 -2 -24 -9 10 -10 51 -10 92 1 50 4 -16 8 -43 8 -60z m-5621 33 c-3
-8 -6 -5 -6 6 -1 11 2 17 5 13 3 -3 4 -12 1 -19z m170 -45 c-3 -10 -5 -2 -5
17 0 19 2 27 5 18 2 -10 2 -26 0 -35z m-149 -48 c0 -16 -2 -15 -8 5 -4 14 -8
36 -8 50 0 22 1 22 8 -5 4 -16 8 -39 8 -50z m5489 8 c-3 -10 -5 -2 -5 17 0 19
2 27 5 18 2 -10 2 -26 0 -35z m-5659 -28 c0 -16 -2 -15 -8 5 -4 14 -8 34 -8
45 0 16 2 15 8 -5 4 -14 8 -34 8 -45z m329 -2 c-3 -10 -5 -2 -5 17 0 19 2 27
5 18 2 -10 2 -26 0 -35z m5450 10 c-3 -10 -5 -4 -5 12 0 17 2 24 5 18 2 -7 2
-21 0 -30z m190 -15 c-2 -13 -4 -5 -4 17 -1 22 1 32 4 23 2 -10 2 -28 0 -40z
m-5504 -128 c4 -55 4 -63 -2 -30 -12 65 -22 197 -12 145 5 -22 11 -74 14 -115z
m5216 51 c2 -54 -6 -32 -12 34 -4 39 -3 50 2 30 5 -16 9 -45 10 -64z m-5502
42 c-3 -10 -5 -4 -5 12 0 17 2 24 5 18 2 -7 2 -21 0 -30z m5631 -148 c0 -16
-6 4 -13 45 -8 41 -13 89 -13 105 0 17 6 -4 13 -45 8 -41 13 -88 13 -105z
m-5790 100 c0 -16 -2 -15 -8 5 -4 14 -8 34 -8 45 0 16 2 15 8 -5 4 -14 8 -34
8 -45z m319 13 c-2 -13 -4 -5 -4 17 -1 22 1 32 4 23 2 -10 2 -28 0 -40z m5640
-25 c-2 -16 -4 -5 -4 22 0 28 2 40 4 28 2 -13 2 -35 0 -50z m-5774 -68 c4 -43
4 -50 -2 -25 -13 51 -22 141 -12 110 4 -14 11 -53 14 -85z m144 13 c-2 -13 -4
-5 -4 17 -1 22 1 32 4 23 2 -10 2 -28 0 -40z m-293 -108 c3 -25 -3 -7 -14 40
-10 47 -19 92 -18 100 1 22 26 -88 32 -140z m5644 35 c0 -22 -3 -19 -9 15 -10
60 -9 108 2 55 4 -22 8 -53 7 -70z m289 43 c-2 -13 -4 -5 -4 17 -1 22 1 32 4
23 2 -10 2 -28 0 -40z m-6130 -5 c-3 -10 -5 -4 -5 12 0 17 2 24 5 18 2 -7 2
-21 0 -30z m521 -203 c0 -19 -6 6 -13 55 -7 50 -13 106 -13 125 0 19 6 -5 13
-55 7 -49 13 -106 13 -125z m-511 143 c-3 -10 -5 -4 -5 12 0 17 2 24 5 18 2
-7 2 -21 0 -30z m610 -25 c-2 -13 -4 -3 -4 22 0 25 2 35 4 23 2 -13 2 -33 0
-45z m5520 -5 c-2 -16 -4 -5 -4 22 0 28 2 40 4 28 2 -13 2 -35 0 -50z m-180
10 c-3 -10 -5 -2 -5 17 0 19 2 27 5 18 2 -10 2 -26 0 -35z m-5589 -58 c-1 -31
-16 35 -16 70 0 25 2 24 9 -10 4 -22 8 -49 7 -60z m5479 18 c-3 -10 -5 -2 -5
17 0 19 2 27 5 18 2 -10 2 -26 0 -35z m-5819 -73 c0 -16 -3 -10 -9 15 -4 22
-8 54 -7 70 0 22 3 19 9 -15 4 -25 7 -56 7 -70z m5939 38 c-2 -13 -4 -5 -4 17
-1 22 1 32 4 23 2 -10 2 -28 0 -40z m-5340 -10 c-2 -13 -4 -5 -4 17 -1 22 1
32 4 23 2 -10 2 -28 0 -40z m-420 10 c-3 -7 -5 -2 -5 12 0 14 2 19 5 13 2 -7
2 -19 0 -25z m5940 -20 c-2 -13 -4 -5 -4 17 -1 22 1 32 4 23 2 -10 2 -28 0
-40z m-269 -173 c0 -22 -6 3 -14 55 -7 52 -13 109 -12 125 0 17 6 -8 13 -55 7
-47 13 -103 13 -125z m-5501 138 c-3 -10 -5 -2 -5 17 0 19 2 27 5 18 2 -10 2
-26 0 -35z m-160 5 c-3 -7 -5 -2 -5 12 0 14 2 19 5 13 2 -7 2 -19 0 -25z
m5760 -25 c-3 -10 -5 -2 -5 17 0 19 2 27 5 18 2 -10 2 -26 0 -35z m-5340 -25
c-2 -13 -4 -3 -4 22 0 25 2 35 4 23 2 -13 2 -33 0 -45z m5520 -15 c-2 -16 -4
-5 -4 22 0 28 2 40 4 28 2 -13 2 -35 0 -50z m-6099 -128 c0 -16 -6 4 -13 45
-8 41 -13 89 -13 105 0 17 6 -4 13 -45 8 -41 13 -88 13 -105z m169 138 c-3
-10 -5 -4 -5 12 0 17 2 24 5 18 2 -7 2 -21 0 -30z m160 -10 c-3 -10 -5 -4 -5
12 0 17 2 24 5 18 2 -7 2 -21 0 -30z m140 -35 c-2 -13 -4 -3 -4 22 0 25 2 35
4 23 2 -13 2 -33 0 -45z m5466 -33 c4 -60 3 -69 -3 -35 -9 46 -13 127 -6 119
2 -2 6 -40 9 -84z m-5756 18 c-3 -10 -5 -4 -5 12 0 17 2 24 5 18 2 -7 2 -21 0
-30z m410 -15 c-2 -13 -4 -5 -4 17 -1 22 1 32 4 23 2 -10 2 -28 0 -40z m-244
-23 c4 -39 3 -50 -2 -30 -9 31 -14 102 -7 94 2 -2 6 -31 9 -64z m5764 8 c-3
-10 -5 -2 -5 17 0 19 2 27 5 18 2 -10 2 -26 0 -35z m-5630 -45 c-2 -13 -4 -3
-4 22 0 25 2 35 4 23 2 -13 2 -33 0 -45z m-279 -33 c0 -25 -2 -24 -9 10 -10
51 -10 92 1 50 4 -16 8 -43 8 -60z m431 -234 c1 -13 -1 -22 -3 -20 -6 6 -36
264 -35 296 1 27 36 -228 38 -276z m5488 227 c-2 -13 -4 -3 -4 22 0 25 2 35 4
23 2 -13 2 -33 0 -45z m-290 -10 c-2 -13 -4 -5 -4 17 -1 22 1 32 4 23 2 -10 2
-28 0 -40z m-5470 -25 c-3 -10 -5 -2 -5 17 0 19 2 27 5 18 2 -10 2 -26 0 -35z
m130 -5 c-2 -13 -4 -5 -4 17 -1 22 1 32 4 23 2 -10 2 -28 0 -40z m5460 -25
c-2 -16 -4 -3 -4 27 0 30 2 43 4 28 2 -16 2 -40 0 -55z m-5940 30 c-3 -10 -5
-4 -5 12 0 17 2 24 5 18 2 -7 2 -21 0 -30z m221 -168 c0 -16 -6 6 -13 50 -8
44 -13 91 -13 105 0 14 6 -9 14 -50 7 -41 12 -88 12 -105z m5899 128 c-3 -10
-5 -2 -5 17 0 19 2 27 5 18 2 -10 2 -26 0 -35z m-290 -45 c-2 -18 -4 -6 -4 27
0 33 2 48 4 33 2 -15 2 -42 0 -60z m-5809 -48 c0 -16 -3 -10 -9 15 -4 22 -8
54 -7 70 0 22 3 19 9 -15 4 -25 7 -56 7 -70z m356 -9 c4 -42 3 -48 -4 -22 -4
19 -11 59 -14 90 -4 42 -3 48 4 22 4 -19 11 -59 14 -90z m113 47 c-2 -13 -4
-3 -4 22 0 25 2 35 4 23 2 -13 2 -33 0 -45z m5460 -35 c-2 -16 -4 -5 -4 22 0
28 2 40 4 28 2 -13 2 -35 0 -50z m180 5 c-2 -13 -4 -3 -4 22 0 25 2 35 4 23 2
-13 2 -33 0 -45z m-5619 -113 c0 -22 -3 -18 -9 15 -4 25 -7 59 -7 75 0 22 3
18 9 -15 4 -25 7 -58 7 -75z m5341 -39 c2 -85 -6 -45 -12 59 -4 72 -3 85 3 45
4 -30 8 -77 9 -104z m300 15 c1 -57 -6 -30 -12 44 -4 54 -4 61 3 30 5 -22 9
-55 9 -74z m-6122 47 c-2 -13 -4 -5 -4 17 -1 22 1 32 4 23 2 -10 2 -28 0 -40z
m5930 -30 c-2 -18 -4 -6 -4 27 0 33 2 48 4 33 2 -15 2 -42 0 -60z m-5730 -10
c-2 -13 -4 -5 -4 17 -1 22 1 32 4 23 2 -10 2 -28 0 -40z m171 -43 c-1 -31 -16
35 -16 70 0 25 2 24 9 -10 4 -22 8 -49 7 -60z m235 0 c4 -54 4 -61 -3 -30 -9
40 -13 112 -6 104 2 -2 6 -35 9 -74z m-596 18 c-3 -10 -5 -4 -5 12 0 17 2 24
5 18 2 -7 2 -21 0 -30z m501 -183 c-1 -40 -15 47 -21 125 l-6 70 14 -85 c7
-47 13 -96 13 -110z m-301 128 c-2 -13 -4 -5 -4 17 -1 22 1 32 4 23 2 -10 2
-28 0 -40z m5730 -10 c-2 -13 -4 -3 -4 22 0 25 2 35 4 23 2 -13 2 -33 0 -45z
m-5899 -158 c-1 -29 -2 -26 -8 15 -4 28 -10 82 -13 120 l-7 70 15 -85 c8 -47
14 -101 13 -120z m6089 153 c-3 -10 -5 -2 -5 17 0 19 2 27 5 18 2 -10 2 -26 0
-35z m-5729 -123 c0 -14 -6 4 -13 40 -8 36 -14 76 -13 90 0 14 6 -4 13 -40 8
-36 14 -76 13 -90z m5429 78 c-2 -13 -4 -3 -4 22 0 25 2 35 4 23 2 -13 2 -33
0 -45z m-5610 -30 c-2 -13 -4 -3 -4 22 0 25 2 35 4 23 2 -13 2 -33 0 -45z
m406 -18 c3 -41 2 -54 -3 -35 -8 31 -13 112 -6 104 2 -2 6 -33 9 -69z m5361
-260 c3 -36 -5 9 -19 100 -13 91 -24 181 -24 200 1 39 35 -200 43 -300z m153
263 c-2 -16 -4 -5 -4 22 0 28 2 40 4 28 2 -13 2 -35 0 -50z m-300 -45 c-2 -13
-4 -3 -4 22 0 25 2 35 4 23 2 -13 2 -33 0 -45z m-5610 -20 c-2 -13 -4 -5 -4
17 -1 22 1 32 4 23 2 -10 2 -28 0 -40z m5920 -20 c-2 -13 -4 -5 -4 17 -1 22 1
32 4 23 2 -10 2 -28 0 -40z m-5630 -15 c-3 -10 -5 -2 -5 17 0 19 2 27 5 18 2
-10 2 -26 0 -35z m-99 -48 c0 -25 -2 -24 -9 10 -10 51 -10 92 1 50 4 -16 8
-43 8 -60z m219 28 c-3 -10 -5 -2 -5 17 0 19 2 27 5 18 2 -10 2 -26 0 -35z
m5222 -62 c1 -57 -6 -30 -12 44 -4 54 -4 61 3 30 5 -22 9 -55 9 -74z m-5622
37 c-2 -13 -4 -5 -4 17 -1 22 1 32 4 23 2 -10 2 -28 0 -40z m-190 -10 c-2 -13
-4 -5 -4 17 -1 22 1 32 4 23 2 -10 2 -28 0 -40z m6110 -40 c-2 -18 -4 -6 -4
27 0 33 2 48 4 33 2 -15 2 -42 0 -60z m-5630 35 c-3 -10 -5 -4 -5 12 0 17 2
24 5 18 2 -7 2 -21 0 -30z m120 -20 c-3 -10 -5 -4 -5 12 0 17 2 24 5 18 2 -7
2 -21 0 -30z m-389 -118 c0 -22 -3 -18 -9 15 -4 25 -7 61 -7 80 1 29 2 26 8
-15 5 -27 8 -63 8 -80z m-195 30 c4 -60 3 -69 -3 -35 -9 46 -13 127 -6 119 2
-2 6 -40 9 -84z m375 0 c0 -25 -2 -24 -9 10 -10 51 -10 92 1 50 4 -16 8 -43 8
-60z m120 -60 c0 -11 -6 7 -14 40 -7 33 -13 71 -13 85 1 14 7 -4 14 -40 8 -36
14 -74 13 -85z m105 70 c4 -34 3 -42 -3 -25 -8 25 -13 87 -6 79 2 -2 6 -26 9
-54z m5216 -74 c1 -57 -6 -30 -12 44 -4 54 -4 61 3 30 5 -22 9 -55 9 -74z
m300 -65 c2 -98 -6 -59 -12 59 -3 75 -2 92 3 55 4 -30 8 -82 9 -114z m-5732
62 c-3 -7 -5 -2 -5 12 0 14 2 19 5 13 2 -7 2 -19 0 -25z m230 -15 c-3 -10 -5
-4 -5 12 0 17 2 24 5 18 2 -7 2 -21 0 -30z m-410 -30 c-3 -10 -5 -2 -5 17 0
19 2 27 5 18 2 -10 2 -26 0 -35z m5730 0 c-3 -10 -5 -2 -5 17 0 19 2 27 5 18
2 -10 2 -26 0 -35z m-5914 -63 c4 -62 3 -73 -3 -40 -9 46 -13 137 -6 129 2 -2
6 -42 9 -89z m374 43 c-3 -10 -5 -2 -5 17 0 19 2 27 5 18 2 -10 2 -26 0 -35z
m121 -33 c0 -22 -1 -22 -8 5 -4 17 -8 41 -8 55 0 22 1 22 8 -5 4 -16 8 -41 8
-55z m125 -30 c4 -27 3 -37 -2 -25 -5 11 -11 43 -14 70 -8 61 7 21 16 -45z
m5184 38 c-2 -13 -4 -5 -4 17 -1 22 1 32 4 23 2 -10 2 -28 0 -40z m-5599 -73
c-1 -31 -16 35 -16 70 0 25 2 24 9 -10 4 -22 8 -49 7 -60z m5719 3 c-2 -18 -4
-4 -4 32 0 36 2 50 4 33 2 -18 2 -48 0 -65z m-5540 40 c-3 -7 -5 -2 -5 12 0
14 2 19 5 13 2 -7 2 -19 0 -25z m5423 -299 c-15 -56 -42 -79 -87 -78 -21 1
-49 5 -63 9 -15 5 -2 6 36 3 98 -9 113 22 116 237 l2 135 3 -133 c2 -75 -1
-150 -7 -173z m-5271 141 c-1 -8 -9 17 -20 55 -10 39 -18 77 -18 85 1 8 9 -16
20 -55 10 -38 18 -77 18 -85z m-131 45 c-1 -31 -16 35 -16 70 0 25 2 24 9 -10
4 -22 8 -49 7 -60z m5699 13 c-2 -18 -4 -6 -4 27 0 33 2 48 4 33 2 -15 2 -42
0 -60z m-5397 -228 c12 -30 30 -69 41 -86 l19 -31 67 18 c37 11 74 19 83 18 8
0 -21 -11 -65 -23 l-80 -23 -22 26 c-13 14 -34 54 -48 89 -26 66 -75 246 -74
272 0 8 13 -34 29 -95 16 -60 38 -135 50 -165z m-493 223 c-3 -10 -5 -4 -5 12
0 17 2 24 5 18 2 -7 2 -21 0 -30z m-200 -50 c-2 -16 -4 -3 -4 27 0 30 2 43 4
28 2 -16 2 -40 0 -55z m5920 -45 c-2 -24 -4 -5 -4 42 0 47 2 66 4 43 2 -24 2
-62 0 -85z m-5710 40 c-3 -7 -5 -2 -5 12 0 14 2 19 5 13 2 -7 2 -19 0 -25z
m201 -73 c-1 -31 -16 35 -16 70 0 25 2 24 9 -10 4 -22 8 -49 7 -60z m3040 88
c-42 -2 -114 -2 -160 0 -46 1 -11 3 77 3 88 0 125 -2 83 -3z m587 -3 c62 -5
35 -6 -85 -3 -96 3 -177 7 -179 9 -7 7 168 2 264 -6z m2055 -110 c-6 -23 -13
-40 -15 -38 -3 2 0 20 5 39 6 18 11 54 12 79 l1 45 4 -42 c2 -23 -1 -61 -7
-83z m-2982 103 c-43 -2 -113 -2 -155 0 -43 1 -8 3 77 3 85 0 120 -2 78 -3z
m-295 -10 c-29 -2 -77 -2 -105 0 -29 2 -6 3 52 3 58 0 81 -1 53 -3z m1467 -3
c62 -7 62 -7 15 -7 -27 -1 -77 3 -110 7 -54 6 -56 7 -15 7 25 1 74 -3 110 -7z
m-1702 -7 c-43 -2 -113 -2 -155 0 -43 1 -8 3 77 3 85 0 120 -2 78 -3z m-2339
-123 c-1 -8 -7 8 -15 35 -7 28 -13 59 -13 70 0 11 7 -5 14 -35 8 -30 14 -62
14 -70z m310 25 c-1 -18 -27 59 -28 80 0 11 7 0 15 -25 7 -25 13 -49 13 -55z
m1748 88 c-20 -2 -52 -2 -70 0 -17 2 0 4 38 4 39 0 53 -2 32 -4z m2232 -9 c7
-7 -82 -3 -134 6 -37 6 -26 7 40 3 50 -3 92 -7 94 -9z m-4522 -56 c-2 -13 -4
-3 -4 22 0 25 2 35 4 23 2 -13 2 -33 0 -45z m2123 52 c-36 -4 -96 -10 -135
-13 l-70 -6 80 13 c44 7 105 13 135 13 l55 0 -65 -7z m2569 -16 c8 -7 -73 -3
-119 6 -34 6 -25 7 35 3 44 -3 82 -7 84 -9z m-2804 -14 c-16 -4 -46 -8 -65 -7
l-35 0 40 7 c22 4 51 7 65 7 22 1 22 0 -5 -7z m2863 3 c-10 -2 -26 -2 -35 0
-10 3 -2 5 17 5 19 0 27 -2 18 -5z m127 -13 c31 -7 24 -7 -30 -3 -38 3 -72 7
-74 9 -8 7 64 3 104 -6z m-3096 -4 c-7 -6 -220 -39 -224 -34 -3 3 37 12 87 20
94 16 145 21 137 14z m3412 -41 c123 -19 244 -39 269 -45 l45 -9 -40 3 c-31 3
-396 58 -525 79 l-25 4 26 2 c15 0 127 -15 250 -34z m706 -12 c-3 -10 -5 -2
-5 17 0 19 2 27 5 18 2 -10 2 -26 0 -35z m-5490 0 c-3 -10 -5 -4 -5 12 0 17 2
24 5 18 2 -7 2 -21 0 -30z m-390 -158 c0 -47 0 -46 -7 15 -4 36 -8 88 -7 115
0 47 0 46 7 -15 4 -36 8 -87 7 -115z m1516 168 c-7 -2 -19 -2 -25 0 -7 3 -2 5
12 5 14 0 19 -2 13 -5z m2332 -3 c292 -16 716 -62 1085 -119 358 -55 654 -102
655 -104 2 -2 29 -335 45 -552 38 -507 50 -948 30 -1088 -13 -86 -42 -155 -83
-195 -45 -44 -146 -90 -256 -118 -183 -47 -302 -54 -1021 -64 -381 -5 -784
-16 -925 -25 -507 -32 -870 -45 -1249 -45 l-388 0 92 46 c151 76 243 181 284
324 38 138 28 449 -34 980 -30 255 -101 839 -105 866 l-5 31 117 12 c128 13
483 28 1313 54 206 7 266 6 445 -3z m-3297 -75 c0 -5 -6 4 -13 20 -8 17 -14
37 -14 45 0 8 7 -1 14 -20 7 -19 13 -39 13 -45z m915 68 c-7 -2 -21 -2 -30 0
-10 3 -4 5 12 5 17 0 24 -2 18 -5z m-54 -7 c-6 -6 -173 -36 -190 -35 -8 1 24
9 71 19 85 18 127 24 119 16z m4621 -26 c-16 -29 -89 -68 -140 -74 l-45 -6 51
13 c57 15 119 50 128 72 3 8 8 15 11 15 3 0 1 -9 -5 -20z m-5764 -207 c-4 -5
-43 138 -51 187 -3 19 8 -14 25 -74 16 -60 28 -111 26 -113z m149 123 c4 -23
18 -51 35 -68 26 -25 35 -28 95 -28 37 0 65 3 63 8 -2 4 -16 31 -31 60 -16 30
-27 55 -25 57 2 2 20 -28 40 -66 l37 -69 -74 0 c-64 0 -77 3 -104 25 -32 27
-46 63 -55 135 -4 36 -4 39 3 15 5 -16 12 -48 16 -69z m5440 47 c-9 -15 -13
-19 -10 -8 4 11 10 29 13 40 3 11 7 14 9 8 3 -7 -3 -24 -12 -40z m-4700 12
c-27 -7 -59 -13 -70 -13 -11 0 3 6 30 13 28 7 59 13 70 13 11 0 -2 -6 -30 -13z
m4368 8 c-7 -2 -19 -2 -25 0 -7 3 -2 5 12 5 14 0 19 -2 13 -5z m50 -10 c-7 -2
-19 -2 -25 0 -7 3 -2 5 12 5 14 0 19 -2 13 -5z m-3619 -315 c143 -1169 157
-1452 80 -1613 -66 -141 -226 -248 -447 -299 -91 -21 -152 -20 -232 5 -128 39
-185 126 -234 354 -29 132 -59 350 -71 515 -8 120 -30 932 -30 1131 l0 55 157
32 c86 18 157 31 158 30 1 -2 9 -183 17 -403 l15 -400 -32 -40 c-60 -74 -115
-207 -115 -278 0 -30 6 -45 30 -67 l29 -28 -28 -79 c-38 -103 -62 -223 -54
-265 14 -78 64 -126 155 -148 55 -14 58 -21 58 -140 0 -47 3 -123 7 -169 l6
-83 80 7 c112 9 109 7 103 79 -3 33 -8 122 -11 196 l-6 135 31 18 c17 11 45
38 62 60 27 38 29 47 25 97 -3 30 -22 111 -42 180 -21 69 -40 133 -42 143 -4
13 1 17 21 17 37 0 60 39 54 94 -7 61 -58 166 -106 218 l-40 43 -16 350 c-9
193 -17 384 -18 425 l-3 74 190 32 c105 18 195 32 200 33 6 1 26 -127 49 -311z
m-944 287 c-30 -8 -62 -14 -70 -14 -24 1 72 27 100 27 14 0 0 -6 -30 -13z
m-93 -21 c-3 -3 -12 -4 -19 -1 -8 3 -5 6 6 6 11 1 17 -2 13 -5z m4923 -4 c0
-5 -5 -10 -11 -10 -5 0 -7 5 -4 10 3 6 8 10 11 10 2 0 4 -4 4 -10z m-4376
-112 c3 -51 11 -203 16 -338 6 -135 13 -282 16 -327 l6 -83 -41 0 c-32 0 -41
4 -41 18 0 9 -7 168 -15 352 -8 184 -15 363 -15 397 0 60 1 62 28 66 15 2 30
5 34 6 3 0 9 -41 12 -91z m4615 55 c-2 -31 -3 -33 -6 -10 l-4 27 -27 -18 c-15
-11 -44 -25 -64 -33 -21 -7 -39 -20 -41 -28 -3 -11 -5 -10 -6 4 -1 16 9 24 42
33 24 7 56 24 72 37 17 13 31 24 33 25 1 0 1 -17 1 -37z m8 -195 c-2 -29 -3
-6 -3 52 0 58 1 81 3 53 2 -29 2 -77 0 -105z m-6080 -145 c-1 -54 -3 -10 -3
97 0 107 2 151 3 98 2 -54 2 -142 0 -195z m5801 230 l-2 -58 -3 52 -4 52 -82
4 -82 3 88 2 87 2 -2 -57z m-4850 -65 l-2 -103 -3 98 c-3 79 -6 98 -18 94 -7
-3 -29 -9 -49 -12 -25 -5 -36 -13 -39 -29 -4 -18 -4 -17 -6 5 -1 23 4 27 47
36 26 6 53 11 60 12 9 1 11 -24 10 -101z m4705 -13 c4 -78 3 -93 -3 -50 -8 64
-13 171 -6 164 2 -2 6 -53 9 -114z m-5374 41 c1 -42 -5 -29 -12 24 -4 30 -3
38 3 25 5 -11 9 -33 9 -49z m5658 -33 c-2 -21 -4 -6 -4 32 0 39 2 55 4 38 2
-18 2 -50 0 -70z m-5229 -45 l-2 -93 -3 86 -4 85 -62 -13 c-34 -7 -82 -12
-107 -11 -36 0 -30 2 28 9 40 5 87 13 105 18 17 5 35 10 40 10 4 1 6 -41 5
-91z m-229 13 c1 -35 -5 -22 -12 24 -5 28 -4 34 3 20 5 -11 9 -31 9 -44z m368
-148 c-2 -38 -3 -7 -3 67 0 74 1 105 3 68 2 -38 2 -98 0 -135z m-560 -5 c-2
-35 -3 -7 -3 62 0 69 1 97 3 63 2 -35 2 -91 0 -125z m5520 85 c-2 -21 -4 -6
-4 32 0 39 2 55 4 38 2 -18 2 -50 0 -70z m140 -85 c-2 -29 -3 -8 -3 47 0 55 1
79 3 53 2 -26 2 -71 0 -100z m-5460 -165 c-1 -54 -3 -10 -3 97 0 107 2 151 3
98 2 -54 2 -142 0 -195z m5600 124 c-2 -23 -3 -1 -3 48 0 50 1 68 3 42 2 -26
2 -67 0 -90z m-5130 -194 c-1 -60 -3 -11 -3 107 0 118 2 167 3 108 2 -60 2
-156 0 -215z m4710 200 c-2 -21 -4 -6 -4 32 0 39 2 55 4 38 2 -18 2 -50 0 -70z
m150 -75 c-2 -29 -3 -6 -3 52 0 58 1 81 3 53 2 -29 2 -77 0 -105z m-5100 -235
c-1 -71 -3 -13 -3 127 0 140 2 198 3 128 2 -71 2 -185 0 -255z m5240 175 c-2
-24 -4 -7 -4 37 0 44 2 63 4 43 2 -21 2 -57 0 -80z m-5970 40 c-2 -13 -4 -5
-4 17 -1 22 1 32 4 23 2 -10 2 -28 0 -40z m5690 -25 c-2 -16 -4 -3 -4 27 0 30
2 43 4 28 2 -16 2 -40 0 -55z m-5400 -95 c-2 -29 -3 -6 -3 52 0 58 1 81 3 53
2 -29 2 -77 0 -105z m580 -660 c-1 -150 -2 -28 -2 272 0 300 1 422 2 273 2
-150 2 -396 0 -545z m5240 625 c-2 -37 -3 -9 -3 62 0 72 1 102 3 68 2 -34 2
-93 0 -130z m-6137 25 c-29 -79 -72 -138 -169 -237 -75 -76 -162 -141 -188
-141 -4 0 12 12 37 27 149 88 310 291 328 416 5 31 7 36 10 16 2 -14 -6 -50
-18 -81z m5867 -20 c-2 -24 -4 -7 -4 37 0 44 2 63 4 43 2 -21 2 -57 0 -80z
m-140 -25 c-2 -21 -4 -4 -4 37 0 41 2 58 4 38 2 -21 2 -55 0 -75z m280 -65
c-2 -29 -3 -8 -3 47 0 55 1 79 3 53 2 -26 2 -71 0 -100z m-5490 -75 c-2 -32
-3 -8 -3 52 0 61 1 87 3 58 2 -29 2 -78 0 -110z m-210 30 c-2 -21 -4 -4 -4 37
0 41 2 58 4 38 2 -21 2 -55 0 -75z m5570 -75 c-2 -29 -3 -6 -3 52 0 58 1 81 3
53 2 -29 2 -77 0 -105z m-140 50 c-2 -18 -4 -4 -4 32 0 36 2 50 4 33 2 -18 2
-48 0 -65z m410 -80 c-2 -29 -3 -6 -3 52 0 58 1 81 3 53 2 -29 2 -77 0 -105z
m-5140 -150 c-1 -51 -3 -10 -3 92 0 102 2 143 3 93 2 -51 2 -135 0 -185z
m5010 110 c-2 -24 -4 -5 -4 42 0 47 2 66 4 43 2 -24 2 -62 0 -85z m-5720 -5
c-2 -21 -4 -6 -4 32 0 39 2 55 4 38 2 -18 2 -50 0 -70z m5456 -103 c3 -129 2
-155 -3 -85 -8 109 -12 281 -6 274 2 -2 6 -87 9 -189z m-4170 137 c54 -62 109
-207 78 -207 -7 0 -42 16 -78 35 -36 19 -74 35 -85 35 -31 0 -87 -28 -130 -65
-49 -41 -58 -43 -58 -12 0 53 51 173 96 227 27 31 29 31 88 25 52 -5 65 -11
89 -38z m-1076 -99 c-2 -24 -4 -7 -4 37 0 44 2 63 4 43 2 -21 2 -57 0 -80z
m5380 -50 c-2 -24 -4 -5 -4 42 0 47 2 66 4 43 2 -24 2 -62 0 -85z m270 -105
c-2 -38 -3 -7 -3 67 0 74 1 105 3 68 2 -38 2 -98 0 -135z m-5870 85 c-2 -18
-4 -4 -4 32 0 36 2 50 4 33 2 -18 2 -48 0 -65z m480 15 c-2 -16 -4 -3 -4 27 0
30 2 43 4 28 2 -16 2 -40 0 -55z m5260 -85 c-2 -29 -3 -6 -3 52 0 58 1 81 3
53 2 -29 2 -77 0 -105z m-6222 117 c63 -15 56 -15 -85 5 -49 7 -51 7 -15 8 22
1 67 -5 100 -13z m174 -47 c71 -34 142 -108 141 -145 -1 -4 -8 6 -17 22 -33
63 -90 106 -183 137 -37 13 -44 17 -20 13 19 -3 54 -15 79 -27z m518 -115 c-2
-27 -3 -5 -3 47 0 52 1 74 3 48 2 -27 2 -69 0 -95z m1047 69 c31 -19 40 -43
101 -261 45 -161 45 -169 -8 -218 -52 -48 -116 -68 -197 -60 -75 6 -120 32
-143 80 -17 34 -18 42 -3 109 15 74 71 241 100 296 34 67 94 88 150 54z m4353
-139 c-2 -32 -3 -8 -3 52 0 61 1 87 3 58 2 -29 2 -78 0 -110z m-5620 50 c-2
-21 -4 -6 -4 32 0 39 2 55 4 38 2 -18 2 -50 0 -70z m740 -50 c-2 -21 -4 -4 -4
37 0 41 2 58 4 38 2 -21 2 -55 0 -75z m-260 -280 c-1 -65 -3 -12 -3 117 0 129
2 182 3 118 2 -65 2 -171 0 -235z m-2692 306 c67 -6 281 -10 485 -10 428 2
838 -8 818 -20 -7 -5 -22 -6 -33 -3 -14 4 -16 3 -7 -4 10 -6 2 -16 -29 -37
-122 -81 -265 -265 -372 -480 -168 -339 -231 -655 -244 -1220 -6 -287 -6 -290
-30 -319 -50 -60 -103 -199 -103 -270 0 -48 22 -86 50 -86 18 0 18 -3 -5 -71
-30 -88 -55 -205 -55 -256 1 -99 75 -170 190 -180 50 -5 60 -9 60 -25 0 -30
66 -276 132 -493 143 -473 168 -577 168 -707 l0 -68 78 0 c42 0 95 -3 116 -7
l39 -6 -6 94 c-8 111 -30 196 -130 505 -92 279 -148 474 -186 636 l-28 123 38
44 c60 67 59 85 -4 281 -44 137 -51 170 -39 170 31 0 62 41 62 83 0 52 -58
171 -112 229 l-40 43 5 220 c8 299 58 619 143 929 61 221 112 332 230 501 91
130 210 228 383 314 76 39 120 36 184 -13 75 -56 82 -83 81 -301 -1 -207 1
-194 -113 -815 -150 -812 -167 -992 -158 -1704 7 -470 13 -573 47 -731 67
-314 93 -543 76 -658 -13 -82 -21 -87 -186 -97 -511 -34 -843 -23 -1430 45
-69 8 -177 19 -241 25 -378 34 -497 191 -709 930 -131 459 -194 769 -211 1034
-17 257 -17 1427 0 1565 30 259 192 592 375 771 25 25 56 48 68 52 32 10 496
1 643 -13z m7972 -101 c-2 -24 -4 -5 -4 42 0 47 2 66 4 43 2 -24 2 -62 0 -85z
m-5892 -33 l4 -90 -8 80 c-5 44 -11 96 -15 115 -5 31 -5 32 5 10 6 -14 12 -65
14 -115z m342 18 c-2 -21 -4 -4 -4 37 0 41 2 58 4 38 2 -21 2 -55 0 -75z
m5680 -30 c-2 -27 -3 -5 -3 47 0 52 1 74 3 48 2 -27 2 -69 0 -95z m-6537 122
c0 -2 -24 -17 -52 -31 -203 -102 -330 -230 -473 -474 -91 -157 -179 -465 -240
-843 -32 -202 -45 -351 -45 -529 l0 -148 -40 0 -40 0 0 168 c0 663 97 1087
338 1475 129 210 354 386 495 387 31 0 57 -2 57 -5z m637 -87 c-2 -18 -4 -4
-4 32 0 36 2 50 4 33 2 -18 2 -48 0 -65z m5500 -180 c-1 -51 -3 -10 -3 92 0
102 2 143 3 93 2 -51 2 -135 0 -185z m-4729 62 c-1 -41 -2 -40 -8 15 -4 33 -8
78 -8 100 1 34 2 32 8 -15 5 -30 8 -75 8 -100z m4869 8 c-2 -24 -4 -5 -4 42 0
47 2 66 4 43 2 -24 2 -62 0 -85z m-5650 -30 c-2 -18 -4 -4 -4 32 0 36 2 50 4
33 2 -18 2 -48 0 -65z m220 -60 c-2 -29 -3 -6 -3 52 0 58 1 81 3 53 2 -29 2
-77 0 -105z m5570 -5 c-2 -32 -3 -8 -3 52 0 61 1 87 3 58 2 -29 2 -78 0 -110z
m130 -40 c-2 -32 -3 -8 -3 52 0 61 1 87 3 58 2 -29 2 -78 0 -110z m-6043 -113
c-9 -74 -19 -130 -21 -123 -2 6 3 61 11 122 9 62 17 135 18 164 1 48 2 49 6
12 2 -22 -4 -101 -14 -175z m5783 43 c-2 -32 -3 -8 -3 52 0 61 1 87 3 58 2
-29 2 -78 0 -110z m-4870 100 c-3 -10 -5 -2 -5 17 0 19 2 27 5 18 2 -10 2 -26
0 -35z m-800 -55 c-2 -18 -4 -4 -4 32 0 36 2 50 4 33 2 -18 2 -48 0 -65z m640
-135 c-2 -32 -3 -6 -3 57 0 63 1 89 3 58 2 -32 2 -84 0 -115z m170 105 c-2
-13 -4 -3 -4 22 0 25 2 35 4 23 2 -13 2 -33 0 -45z m-590 -91 c-2 -23 -3 -1
-3 48 0 50 1 68 3 42 2 -26 2 -67 0 -90z m5590 1 c-2 -24 -4 -5 -4 42 0 47 2
66 4 43 2 -24 2 -62 0 -85z m-300 33 c-15 -141 -86 -245 -209 -307 -78 -39
-209 -79 -288 -88 -42 -4 -34 -1 32 13 250 54 378 133 427 265 12 32 24 85 28
117 3 32 8 59 11 59 3 0 2 -27 -1 -59z m-5520 -48 c-2 -21 -4 -6 -4 32 0 39 2
55 4 38 2 -18 2 -50 0 -70z m5960 -128 c0 -69 0 -69 -8 20 -4 50 -7 115 -6
145 0 50 1 48 7 -20 4 -41 7 -106 7 -145z m-5119 125 c0 -22 -1 -22 -8 5 -4
17 -8 41 -8 55 0 22 1 22 8 -5 4 -16 8 -41 8 -55z m-331 -52 c-2 -24 -4 -5 -4
42 0 47 2 66 4 43 2 -24 2 -62 0 -85z m832 -149 l1 -87 -37 -4 c-21 -3 -39 -4
-41 -3 -2 2 -6 77 -9 168 l-6 166 39 3 39 3 7 -80 c3 -44 6 -119 7 -166z
m4348 109 c-2 -24 -4 -7 -4 37 0 44 2 63 4 43 2 -21 2 -57 0 -80z m-5470 -75
c-2 -27 -3 -5 -3 47 0 52 1 74 3 48 2 -27 2 -69 0 -95z m683 -48 c12 -27 17
-45 11 -40 -16 16 -58 136 -65 185 -4 34 -1 27 13 -25 11 -38 29 -92 41 -120z
m4927 43 c-2 -29 -3 -8 -3 47 0 55 1 79 3 53 2 -26 2 -71 0 -100z m-5840 50
c-2 -18 -4 -6 -4 27 0 33 2 48 4 33 2 -15 2 -42 0 -60z m650 -45 c-2 -21 -4
-4 -4 37 0 41 2 58 4 38 2 -21 2 -55 0 -75z m-770 45 c-3 -7 -5 -2 -5 12 0 14
2 19 5 13 2 -7 2 -19 0 -25z m630 -95 c-2 -21 -4 -4 -4 37 0 41 2 58 4 38 2
-21 2 -55 0 -75z m-658 -68 c-12 -69 -24 -123 -27 -121 -2 3 7 64 19 136 13
72 25 126 27 120 2 -6 -6 -67 -19 -135z m5861 50 l0 -95 -57 2 -58 2 53 3 52
4 0 90 c0 49 2 89 5 89 3 0 5 -43 5 -95z m-5723 -7 c-2 -18 -4 -6 -4 27 0 33
2 48 4 33 2 -15 2 -42 0 -60z m5993 -13 l0 -55 -62 2 -63 2 58 3 57 4 0 49 c0
28 2 50 5 50 3 0 5 -25 5 -55z m-5763 -42 c-2 -16 -4 -3 -4 27 0 30 2 43 4 28
2 -16 2 -40 0 -55z m420 10 c-2 -16 -4 -5 -4 22 0 28 2 40 4 28 2 -13 2 -35 0
-50z m5210 -10 c-2 -16 -4 -5 -4 22 0 28 2 40 4 28 2 -13 2 -35 0 -50z m-5350
-25 c-2 -13 -4 -3 -4 22 0 25 2 35 4 23 2 -13 2 -33 0 -45z m588 -83 c22 -10
65 -25 95 -32 l55 -13 -47 5 c-84 8 -185 71 -240 148 -12 18 4 5 37 -28 33
-34 78 -70 100 -80z m-1108 58 c-2 -16 -4 -5 -4 22 0 28 2 40 4 28 2 -13 2
-35 0 -50z m650 -50 c-2 -16 -4 -3 -4 27 0 30 2 43 4 28 2 -16 2 -40 0 -55z
m-420 5 c-2 -13 -4 -3 -4 22 0 25 2 35 4 23 2 -13 2 -33 0 -45z m5372 -47 c-7
-50 -15 -89 -17 -86 -3 3 1 45 8 95 7 50 15 88 17 86 3 -3 -1 -45 -8 -95z
m-659 79 c-30 -5 -75 -8 -100 -7 -45 0 -45 0 10 7 30 4 75 7 100 7 44 0 44 0
-10 -7z m-4433 -67 c-2 -16 -4 -5 -4 22 0 28 2 40 4 28 2 -13 2 -35 0 -50z
m4216 50 c-40 -2 -106 -2 -145 0 -40 1 -8 3 72 3 80 0 112 -2 73 -3z m-4736
-65 c-2 -13 -4 -3 -4 22 0 25 2 35 4 23 2 -13 2 -33 0 -45z m4251 55 c-114 -2
-303 -2 -420 0 -117 1 -24 2 207 2 231 0 327 -1 213 -2z m-735 -10 c-34 -2
-93 -2 -130 0 -37 2 -9 3 62 3 72 0 102 -1 68 -3z m-236 -10 c-20 -2 -52 -2
-70 0 -17 2 0 4 38 4 39 0 53 -2 32 -4z m2887 -75 c14 -205 16 -452 6 -673 -6
-132 -14 -243 -18 -246 -4 -4 -106 -10 -226 -14 l-219 -7 7 63 c3 34 8 64 9
66 2 1 39 6 82 10 l78 6 -7 90 c-3 50 -6 122 -6 162 l0 72 -39 18 c-49 22
-105 79 -126 127 -18 45 -19 188 -1 298 10 65 14 75 33 78 22 3 340 28 395 31
26 1 26 0 32 -81z m-3041 65 c-23 -2 -64 -2 -90 0 -26 2 -7 3 42 3 50 0 71 -1
48 -3z m-3276 -35 c-3 -7 -5 -2 -5 12 0 14 2 19 5 13 2 -7 2 -19 0 -25z m373
-63 c-7 -47 -14 -84 -17 -82 -2 3 1 44 8 91 7 47 14 84 17 82 2 -3 -1 -44 -8
-91z m2728 88 c-21 -2 -55 -2 -75 0 -21 2 -4 4 37 4 41 0 58 -2 38 -4z m-2301
-65 c-2 -13 -4 -3 -4 22 0 25 2 35 4 23 2 -13 2 -33 0 -45z m2126 55 c-35 -2
-91 -2 -125 0 -35 2 -7 3 62 3 69 0 97 -1 63 -3z m3734 -38 c159 -35 262 -95
340 -196 80 -104 118 -202 138 -359 24 -180 38 -866 26 -1253 -15 -471 -30
-606 -78 -700 -45 -90 -219 -255 -419 -400 -112 -80 -160 -105 -294 -151
l-103 -36 7 247 c3 137 13 489 21 783 8 294 15 646 15 783 l0 247 44 0 44 0 6
43 c19 139 28 433 23 718 l-5 316 81 -13 c45 -7 114 -20 154 -29z m-5079 28
c-15 -2 -42 -2 -60 0 -18 2 -6 4 27 4 33 0 48 -2 33 -4z m1090 0 c-32 -2 -84
-2 -115 0 -32 2 -6 3 57 3 63 0 89 -1 58 -3z m-1200 -10 c-10 -2 -26 -2 -35 0
-10 3 -2 5 17 5 19 0 27 -2 18 -5z m785 0 c-116 -2 -310 -2 -430 0 -120 1 -24
2 212 2 237 0 335 -1 218 -2z m-1596 -65 c-2 -13 -4 -3 -4 22 0 25 2 35 4 23
2 -13 2 -33 0 -45z m-670 15 c-3 -10 -5 -4 -5 12 0 17 2 24 5 18 2 -7 2 -21 0
-30z m150 -25 c-2 -13 -4 -3 -4 22 0 25 2 35 4 23 2 -13 2 -33 0 -45z m650
-65 c-2 -16 -4 -3 -4 27 0 30 2 43 4 28 2 -16 2 -40 0 -55z m-856 -218 c-27
-143 -50 -252 -50 -242 -1 10 19 129 44 265 25 135 46 251 46 257 1 5 3 3 5
-5 2 -8 -19 -132 -45 -275z m5806 223 c-2 -13 -4 -5 -4 17 -1 22 1 32 4 23 2
-10 2 -28 0 -40z m-5610 -35 c-2 -16 -4 -5 -4 22 0 28 2 40 4 28 2 -13 2 -35
0 -50z m520 0 c-2 -16 -4 -5 -4 22 0 28 2 40 4 28 2 -13 2 -35 0 -50z m-300
-30 c-3 -10 -5 -2 -5 17 0 19 2 27 5 18 2 -10 2 -26 0 -35z m5380 -60 c-2 -21
-4 -6 -4 32 0 39 2 55 4 38 2 -18 2 -50 0 -70z m-4950 25 c-2 -13 -4 -3 -4 22
0 25 2 35 4 23 2 -13 2 -33 0 -45z m-660 -30 c-2 -13 -4 -3 -4 22 0 25 2 35 4
23 2 -13 2 -33 0 -45z m520 -5 c-2 -16 -4 -5 -4 22 0 28 2 40 4 28 2 -13 2
-35 0 -50z m-303 -13 l-6 -59 93 -4 94 -3 -103 -2 c-94 -2 -103 0 -98 16 3 9
8 38 12 65 9 68 16 58 8 -13z m479 -83 c42 -3 42 -4 -8 -5 l-50 -2 5 57 5 58
3 -52 3 -52 42 -4z m-706 41 c-3 -8 -6 -5 -6 6 -1 11 2 17 5 13 3 -3 4 -12 1
-19z m523 -8 c0 -30 0 -30 -52 -28 l-53 2 48 3 c42 4 47 7 47 29 0 13 2 24 5
24 3 0 5 -13 5 -30z m5113 -15 c5 -28 4 -34 -3 -20 -8 19 -14 73 -6 64 2 -2 6
-22 9 -44z m-5666 -57 c-3 -7 -5 -2 -5 12 0 14 2 19 5 13 2 -7 2 -19 0 -25z
m5706 -31 c26 -44 99 -117 117 -117 6 0 10 -12 9 -27 -1 -23 -2 -25 -7 -8 -4
11 -30 41 -57 67 -28 25 -61 65 -73 87 -31 55 -21 53 11 -2z m-4916 -79 c-2
-24 -4 -7 -4 37 0 44 2 63 4 43 2 -21 2 -57 0 -80z m-803 48 c-3 -21 -8 -35
-11 -32 -2 2 -1 20 3 40 3 21 8 35 11 32 2 -2 1 -20 -3 -40z m436 4 c129 -6
241 -13 248 -15 17 -6 16 -201 -3 -289 -22 -103 -53 -126 -186 -142 l-57 -6
-12 -162 c-7 -88 -13 -169 -14 -180 -1 -17 6 -18 87 -17 l87 2 -6 -73 c-4 -40
-8 -75 -10 -77 -4 -5 -525 27 -531 32 -2 3 -2 30 2 61 l7 56 89 0 c48 0 91 5
94 10 4 6 12 86 20 178 14 178 13 182 -33 182 -33 0 -84 24 -108 51 -49 54
-54 146 -18 314 22 102 18 97 66 91 24 -3 149 -10 278 -16z m-459 -110 c-5
-25 -9 -35 -10 -24 -1 28 11 92 16 79 1 -6 -1 -30 -6 -55z m-167 -109 c-4 -28
-9 -50 -11 -47 -3 3 -2 28 2 56 4 28 9 49 12 47 2 -3 1 -28 -3 -56z m180 -179
c9 -19 16 -36 13 -38 -2 -3 -14 18 -26 45 -17 40 -21 67 -19 143 l1 93 6 -105
c5 -72 12 -115 25 -138z m5866 188 l0 -50 -72 2 -73 2 68 3 67 4 0 44 c0 25 2
45 5 45 3 0 5 -22 5 -50z m-5053 -52 c-2 -18 -4 -6 -4 27 0 33 2 48 4 33 2
-15 2 -42 0 -60z m4900 -60 c-2 -13 -4 -5 -4 17 -1 22 1 32 4 23 2 -10 2 -28
0 -40z m-5918 -54 c-6 -49 -14 -91 -16 -94 -5 -5 0 49 13 148 4 24 8 41 11 39
2 -3 -1 -45 -8 -93z m1007 35 c-12 -76 -55 -137 -128 -182 -16 -10 -28 -13
-28 -8 0 5 9 13 20 16 57 18 114 96 126 174 4 23 9 41 12 41 2 0 2 -18 -2 -41z
m4901 -106 c-2 -21 -4 -6 -4 32 0 39 2 55 4 38 2 -18 2 -50 0 -70z m-5697
-138 l0 -125 -24 0 c-15 0 -26 -7 -29 -17 -3 -14 -4 -13 -3 2 1 13 9 21 24 23
21 3 22 7 22 123 0 65 2 119 5 119 3 0 5 -56 5 -125z m-233 53 c-2 -13 -4 -5
-4 17 -1 22 1 32 4 23 2 -10 2 -28 0 -40z m5998 -81 l75 -3 -77 0 -78 1 -1 60
0 60 3 -57 4 -57 74 -4z m-5128 -4 c-2 -16 -4 -5 -4 22 0 28 2 40 4 28 2 -13
2 -35 0 -50z m-880 5 c-2 -13 -4 -5 -4 17 -1 22 1 32 4 23 2 -10 2 -28 0 -40z
m6123 8 c0 -3 -4 -8 -10 -11 -5 -3 -10 -1 -10 4 0 6 5 11 10 11 6 0 10 -2 10
-4z m239 -28 c-2 -31 -2 -31 -6 -5 -4 25 -8 27 -53 27 l-49 0 -4 -157 -3 -158
-2 163 -2 162 60 0 60 0 -1 -32z m-6372 -105 c-2 -21 -4 -6 -4 32 0 39 2 55 4
38 2 -18 2 -50 0 -70z m916 34 c31 -4 31 -4 -5 -5 -37 -2 -38 -1 -37 31 2 29
2 29 6 5 3 -22 10 -28 36 -31z m5204 -294 c-1 -65 -3 -12 -3 117 0 129 2 182
3 118 2 -65 2 -171 0 -235z m-7097 290 c52 -59 112 -203 85 -203 -3 0 -39 16
-79 36 -61 29 -81 34 -111 28 -32 -6 -123 -67 -140 -94 -13 -20 -25 -9 -25 23
0 44 43 161 76 208 27 39 27 39 94 39 66 0 69 -1 100 -37z m1937 -90 c-2 -16
-4 -3 -4 27 0 30 2 43 4 28 2 -16 2 -40 0 -55z m5400 -380 c-1 -82 -3 -15 -3
147 0 162 2 229 3 148 2 -82 2 -214 0 -295z m-6170 280 c-2 -27 -3 -5 -3 47 0
52 1 74 3 48 2 -27 2 -69 0 -95z m-200 -45 c-2 -29 -3 -6 -3 52 0 58 1 81 3
53 2 -29 2 -77 0 -105z m3586 135 c-40 -2 -107 -2 -150 0 -43 1 -10 3 72 3 83
0 118 -2 78 -3z m575 0 c-43 -2 -113 -2 -155 0 -43 1 -8 3 77 3 85 0 120 -2
78 -3z m-830 -10 c-16 -2 -40 -2 -55 0 -16 2 -3 4 27 4 30 0 43 -2 28 -4z
m975 0 c-13 -2 -33 -2 -45 0 -13 2 -3 4 22 4 25 0 35 -2 23 -4z m-1138 -13
c-44 -4 -114 -10 -155 -13 l-75 -6 85 13 c47 7 117 13 155 13 l70 0 -80 -7z
m1315 -5 l85 -15 -70 7 c-38 3 -92 9 -120 13 -41 6 -44 7 -15 8 19 1 73 -5
120 -13z m-3526 -96 c-4 -52 -9 -88 -12 -81 -5 17 8 185 14 179 3 -3 2 -47 -2
-98z m1969 74 c-7 -2 -21 -2 -30 0 -10 3 -4 5 12 5 17 0 24 -2 18 -5z m1754
-10 c51 -9 91 -18 89 -21 -5 -5 -196 28 -196 34 0 6 7 5 107 -13z m-1819 0
c-10 -2 -26 -2 -35 0 -10 3 -2 5 17 5 19 0 27 -2 18 -5z m1487 -17 c534 -66
886 -178 1180 -375 89 -60 99 -70 161 -164 105 -157 157 -337 213 -732 46
-332 55 -443 55 -710 1 -275 -12 -385 -63 -564 -98 -339 -315 -605 -626 -767
-99 -52 -99 -51 -3 25 165 132 292 314 364 525 56 164 69 268 69 566 -1 278
-10 385 -61 725 -38 251 -96 421 -194 565 -93 135 -384 293 -692 374 -304 80
-562 108 -993 108 -282 0 -392 -6 -658 -38 -319 -37 -648 -120 -889 -224 -421
-181 -682 -512 -792 -1001 -40 -178 -56 -348 -66 -679 -12 -420 2 -515 104
-725 101 -207 262 -379 448 -481 62 -34 62 -34 23 -28 -342 57 -681 367 -818
749 -53 148 -60 213 -58 550 2 536 37 824 136 1129 122 374 385 687 720 853
53 27 255 103 389 148 306 101 731 168 1196 189 176 8 740 -4 855 -18z m-1630
-7 c-49 -10 -97 -18 -105 -16 -18 3 135 35 170 35 14 0 -15 -8 -65 -19z m2115
-9 c20 -6 21 -8 5 -8 -11 0 -29 3 -40 8 -25 11 1 11 35 0z m-5834 -19 c29 -18
37 -37 95 -211 l63 -192 -20 -36 c-29 -55 -102 -95 -180 -100 -122 -8 -191 29
-201 107 -7 49 24 188 71 316 26 73 38 94 66 112 40 28 65 29 106 4z m3589 3
c-11 -4 -227 -61 -265 -69 l-25 -6 25 11 c32 15 240 69 260 69 8 0 11 -2 5 -5z
m2325 -4 c20 -6 21 -8 5 -8 -11 0 -29 3 -40 8 -25 11 1 11 35 0z m75 -20 c13
-5 14 -9 5 -9 -8 0 -24 4 -35 9 -13 5 -14 9 -5 9 8 0 24 -4 35 -9z m1272 -277
c-1 -54 -3 -12 -3 92 0 105 2 149 3 98 2 -51 2 -136 0 -190z m-6036 187 l29 0
-2 -527 -3 -528 -2 522 -3 522 -28 3 c-23 3 -27 8 -28 38 -1 35 -1 35 3 3 4
-29 8 -33 34 -33z m4870 55 c19 -8 29 -14 23 -15 -7 0 -27 7 -45 15 -19 8 -29
14 -23 15 7 0 27 -7 45 -15z m-2811 -25 c-8 -5 -22 -9 -30 -9 -10 0 -8 3 5 9
27 12 43 12 25 0z m2985 -42 c166 -73 353 -190 411 -258 63 -72 150 -223 168
-290 4 -14 -13 16 -37 66 -59 121 -115 202 -178 257 -68 60 -232 156 -360 212
-57 25 -113 50 -124 55 -52 26 37 -6 120 -42z m-5278 -525 c-1 -103 -2 -21 -2
182 0 204 1 288 2 188 2 -100 2 -266 0 -370z m949 502 c-3 -9 -19 -15 -40 -15
-30 0 -35 -4 -39 -27 -4 -26 -4 -26 -6 5 -1 31 0 32 39 32 35 0 40 3 41 23 0
12 3 16 6 9 3 -7 2 -19 -1 -27z m1234 31 c0 -2 -46 -21 -102 -41 -57 -21 -127
-48 -156 -61 -29 -13 -50 -19 -47 -14 3 5 54 27 113 50 59 23 123 47 142 55
37 15 50 18 50 11z m-1733 -193 c-2 -37 -3 -9 -3 62 0 72 1 102 3 68 2 -34 2
-93 0 -130z m151 170 c-27 -2 -69 -2 -95 0 -27 2 -5 3 47 3 52 0 74 -1 48 -3z
m132 -60 l-5 -58 -3 52 c-3 52 -3 52 -40 56 -35 3 -35 4 8 5 l45 2 -5 -57z
m5397 -225 c-1 -40 -3 -8 -3 72 0 80 2 112 3 73 2 -40 2 -106 0 -145z m-5270
110 c-2 -18 -4 -4 -4 32 0 36 2 50 4 33 2 -18 2 -48 0 -65z m885 -8 c-220
-145 -391 -342 -517 -595 -36 -71 -65 -125 -65 -119 0 26 126 257 188 344 96
136 245 281 383 373 63 42 118 77 123 77 5 0 -46 -36 -112 -80z m-1025 -32
c-2 -18 -4 -4 -4 32 0 36 2 50 4 33 2 -18 2 -48 0 -65z m130 -90 c-2 -18 -4
-4 -4 32 0 36 2 50 4 33 2 -18 2 -48 0 -65z m-410 -465 c-1 -98 -2 -20 -2 172
-1 193 1 273 2 178 2 -94 2 -252 0 -350z m270 410 c-2 -21 -4 -4 -4 37 0 41 2
58 4 38 2 -21 2 -55 0 -75z m5550 -110 c-2 -37 -3 -9 -3 62 0 72 1 102 3 68 2
-34 2 -93 0 -130z m110 -66 c-1 -45 -3 -5 -3 88 0 94 2 130 3 82 2 -48 2 -125
0 -170z m-5530 60 c-2 -23 -3 -1 -3 48 0 50 1 68 3 42 2 -26 2 -67 0 -90z
m5280 -150 c-1 -45 -3 -5 -3 88 0 94 2 130 3 82 2 -48 2 -125 0 -170z m-5420
26 c-2 -38 -3 -7 -3 67 0 74 1 105 3 68 2 -38 2 -98 0 -135z m-1598 70 c36
-156 104 -389 191 -657 86 -267 115 -371 126 -453 l7 -53 -55 0 -55 0 -6 75
c-10 115 -39 231 -138 557 -80 265 -172 599 -166 604 3 2 61 22 68 23 3 1 15
-43 28 -96z m1728 -340 c-1 -60 -3 -11 -3 107 0 118 2 167 3 108 2 -60 2 -156
0 -215z m3260 307 c372 -20 641 -72 904 -176 199 -79 355 -195 417 -311 47
-89 92 -241 126 -429 35 -191 73 -686 61 -813 -15 -183 -62 -376 -117 -485
-43 -86 -130 -206 -192 -264 -228 -213 -472 -303 -921 -341 -718 -61 -953 -73
-1490 -75 -427 -1 -443 0 -525 21 -126 34 -234 91 -332 177 -106 93 -175 183
-238 311 -90 183 -100 263 -89 666 9 338 28 499 79 682 133 473 410 740 930
892 250 73 459 108 838 138 l33 3 -29 -27 c-82 -77 -152 -190 -152 -245 0 -21
8 -42 20 -54 20 -20 20 -20 -36 -104 -113 -175 -135 -264 -82 -343 59 -90 243
-141 355 -98 52 20 123 79 123 104 1 9 7 2 15 -16 14 -33 41 -53 73 -53 17 0
19 -8 21 -87 3 -111 24 -225 51 -269 38 -61 75 -79 160 -78 84 1 146 23 212
75 55 45 98 122 98 181 0 41 -7 55 -62 129 -33 46 -85 113 -115 148 -48 59
-52 66 -34 73 29 10 43 44 35 81 -10 46 -128 161 -199 194 l-58 26 -66 -23
c-94 -33 -98 -35 -114 -82 l-15 -43 -1 58 c-1 55 0 57 24 57 15 0 38 12 52 26
25 25 25 30 20 107 -8 137 -67 254 -129 259 -22 1 68 13 127 16 17 1 116 -3
222 -8z m2160 -243 c-1 -45 -3 -5 -3 88 0 94 2 130 3 82 2 -48 2 -125 0 -170z
m-363 183 c4 -24 3 -28 -2 -15 -14 31 -24 83 -13 65 5 -8 11 -31 15 -50z
m-2195 4 c67 -19 82 -37 106 -130 17 -66 20 -154 5 -154 -6 0 -37 25 -70 55
-77 71 -110 74 -217 25 -56 -26 -63 -27 -63 -11 0 30 68 134 121 184 28 26 52
47 55 47 2 0 31 -7 63 -16z m2668 -301 c-1 -54 -3 -12 -3 92 0 105 2 149 3 98
2 -51 2 -136 0 -190z m-439 162 c0 -11 -6 3 -14 30 -7 28 -13 55 -13 60 2 17
27 -69 27 -90z m-5911 -107 c-2 -29 -3 -6 -3 52 0 58 1 81 3 53 2 -29 2 -77 0
-105z m6100 -55 c-2 -38 -3 -7 -3 67 0 74 1 105 3 68 2 -38 2 -98 0 -135z
m-5410 145 c-3 -7 -5 -2 -5 12 0 14 2 19 5 13 2 -7 2 -19 0 -25z m5263 -216
c12 -78 20 -147 18 -153 -3 -10 -41 223 -53 331 l-4 35 9 -35 c5 -19 19 -99
30 -178z m-5273 -9 c-2 -37 -3 -9 -3 62 0 72 1 102 3 68 2 -34 2 -93 0 -130z
m2985 128 l32 -29 10 -200 c9 -184 8 -202 -8 -227 -57 -87 -266 -84 -352 6
-56 59 -31 142 107 345 92 135 147 163 211 105z m2565 -228 c-2 -37 -3 -9 -3
62 0 72 1 102 3 68 2 -34 2 -93 0 -130z m-6220 60 c-2 -21 -4 -4 -4 37 0 41 2
58 4 38 2 -21 2 -55 0 -75z m1111 19 c-11 -40 -23 -70 -25 -68 -2 2 6 36 18
75 11 40 23 70 25 68 2 -2 -6 -36 -18 -75z m-701 -75 c-2 -23 -3 -1 -3 48 0
50 1 68 3 42 2 -26 2 -67 0 -90z m390 -129 c-1 -46 -3 -11 -3 77 0 88 2 125 3
83 2 -42 2 -114 0 -160z m3246 175 c53 -39 110 -110 101 -124 -3 -5 -41 -6
-84 -3 -117 10 -147 -8 -208 -130 l-19 -40 -14 25 c-17 32 -18 202 -1 251 12
32 20 39 70 56 66 22 82 19 155 -35z m2034 -255 c-1 -57 -3 -11 -3 102 0 113
2 159 3 103 2 -57 2 -149 0 -205z m250 55 c-1 -43 -3 -10 -3 72 0 83 2 118 3
78 2 -40 2 -107 0 -150z m-6309 67 c0 -16 -3 -11 -9 15 -4 22 -8 51 -7 65 0
16 3 11 9 -15 4 -22 8 -51 7 -65z m639 -177 c-1 -49 -3 -9 -3 87 0 96 2 136 3
88 2 -49 2 -127 0 -175z m418 217 c-9 -41 -17 -33 -9 9 4 17 9 30 11 27 3 -2
2 -19 -2 -36z m-838 8 c-3 -8 -6 -5 -6 6 -1 11 2 17 5 13 3 -3 4 -12 1 -19z
m0 -230 c-1 -40 -3 -8 -3 72 0 80 2 112 3 73 2 -40 2 -106 0 -145z m160 -41
c-1 -45 -3 -5 -3 88 0 94 2 130 3 82 2 -48 2 -125 0 -170z m5581 133 c0 -16
-3 -10 -9 15 -4 22 -8 54 -7 70 0 22 3 19 9 -15 4 -25 7 -56 7 -70z m-4924 46
c-3 -21 -8 -35 -11 -32 -2 2 -1 20 3 40 3 21 8 35 11 32 2 -2 1 -20 -3 -40z
m5153 -478 c-1 -95 -3 -18 -3 172 0 190 2 267 3 173 2 -95 2 -251 0 -345z
m-6180 470 c-3 -8 -6 -5 -6 6 -1 11 2 17 5 13 3 -3 4 -12 1 -19z m4078 -44
c127 -149 214 -271 215 -297 1 -94 -135 -207 -250 -207 -110 0 -139 66 -155
346 -6 101 -4 116 14 152 26 52 46 64 96 58 33 -4 47 -13 80 -52z m-4036 -144
c-1 -22 -38 131 -38 155 1 11 9 -16 20 -60 10 -44 18 -87 18 -95z m962 68 c-6
-40 -16 -98 -21 -128 l-9 -55 4 60 c7 79 28 206 33 200 3 -3 0 -37 -7 -77z
m4956 -30 c-2 -18 -4 -6 -4 27 0 33 2 48 4 33 2 -15 2 -42 0 -60z m-5200 -215
c-1 -49 -3 -9 -3 87 0 96 2 136 3 88 2 -49 2 -127 0 -175z m5530 -5 c-1 -51
-3 -12 -3 87 0 99 2 141 3 93 2 -48 2 -129 0 -180z m-320 115 c-2 -16 -4 -5
-4 22 0 28 2 40 4 28 2 -13 2 -35 0 -50z m70 -435 c-1 -95 -3 -20 -3 167 0
187 2 265 3 173 2 -92 2 -245 0 -340z m-5984 427 c4 -34 3 -42 -3 -25 -8 25
-13 87 -6 79 2 -2 6 -26 9 -54z m164 -32 c-2 -16 -4 -3 -4 27 0 30 2 43 4 28
2 -16 2 -40 0 -55z m400 -5 c-2 -13 -4 -5 -4 17 -1 22 1 32 4 23 2 -10 2 -28
0 -40z m-240 -50 c-2 -18 -4 -4 -4 32 0 36 2 50 4 33 2 -18 2 -48 0 -65z
m5600 -135 c-2 -38 -3 -7 -3 67 0 74 1 105 3 68 2 -38 2 -98 0 -135z m-5010
95 c-2 -18 -4 -6 -4 27 0 33 2 48 4 33 2 -15 2 -42 0 -60z m-889 -38 c0 -16
-3 -10 -9 15 -4 22 -8 54 -7 70 0 22 3 19 9 -15 4 -25 7 -56 7 -70z m149 33
c-2 -16 -4 -5 -4 22 0 28 2 40 4 28 2 -13 2 -35 0 -50z m400 -120 c-2 -32 -3
-8 -3 52 0 61 1 87 3 58 2 -29 2 -78 0 -110z m-240 50 c-2 -16 -4 -3 -4 27 0
30 2 43 4 28 2 -16 2 -40 0 -55z m-132 -97 c9 -65 14 -120 12 -123 -5 -4 -23
114 -32 207 -9 92 3 42 20 -84z m702 27 c-2 -21 -4 -4 -4 37 0 41 2 58 4 38 2
-21 2 -55 0 -75z m5470 -15 c-2 -24 -4 -5 -4 42 0 47 2 66 4 43 2 -24 2 -62 0
-85z m-6340 25 c-2 -16 -4 -5 -4 22 0 28 2 40 4 28 2 -13 2 -35 0 -50z m686
-63 c3 -76 2 -97 -3 -60 -8 57 -13 187 -6 179 2 -2 6 -56 9 -119z m5504 -52
c-2 -35 -3 -9 -3 57 0 66 1 94 3 63 2 -32 2 -86 0 -120z m-5880 95 c-3 -10 -5
-2 -5 17 0 19 2 27 5 18 2 -10 2 -26 0 -35z m-299 -115 c-4 -62 -13 -120 -23
-146 -17 -41 -65 -92 -88 -92 -7 0 3 9 21 20 51 31 73 93 80 217 2 56 7 103
10 103 3 0 2 -46 0 -102z m309 45 c-3 -10 -5 -2 -5 17 0 19 2 27 5 18 2 -10 2
-26 0 -35z m230 -30 c-2 -16 -4 -5 -4 22 0 28 2 40 4 28 2 -13 2 -35 0 -50z
m310 -410 c-1 -87 -3 -16 -3 157 0 173 2 244 3 158 2 -87 2 -229 0 -315z
m5040 410 c-3 -10 -5 -4 -5 12 0 17 2 24 5 18 2 -7 2 -21 0 -30z m430 -15 c-3
-7 -5 -2 -5 12 0 14 2 19 5 13 2 -7 2 -19 0 -25z m-5928 -310 c17 -63 53 -181
82 -263 64 -185 63 -184 51 -165 -42 64 -192 587 -206 715 -3 28 5 0 18 -62
14 -62 38 -163 55 -225z m158 225 c-2 -16 -4 -5 -4 22 0 28 2 40 4 28 2 -13 2
-35 0 -50z m5330 -55 c-2 -24 -4 -5 -4 42 0 47 2 66 4 43 2 -24 2 -62 0 -85z
m-5700 65 c-3 -10 -5 -4 -5 12 0 17 2 24 5 18 2 -7 2 -21 0 -30z m510 -40 c-2
-16 -4 -5 -4 22 0 28 2 40 4 28 2 -13 2 -35 0 -50z m5480 -240 c-1 -54 -3 -10
-3 97 0 107 2 151 3 98 2 -54 2 -142 0 -195z m-100 110 c-2 -32 -3 -6 -3 57 0
63 1 89 3 58 2 -32 2 -84 0 -115z m-5859 32 c0 -11 -6 3 -13 30 -7 28 -13 59
-13 70 0 11 6 -2 13 -30 7 -27 13 -59 13 -70z m349 38 c-3 -10 -5 -2 -5 17 0
19 2 27 5 18 2 -10 2 -26 0 -35z m151 -73 c0 -16 -3 -11 -9 15 -4 22 -8 51 -7
65 0 16 3 11 9 -15 4 -22 8 -51 7 -65z m-2645 63 c-20 -8 -16 -20 31 -91 91
-141 207 -242 389 -342 42 -23 77 -44 77 -47 0 -9 -153 78 -227 130 -87 59
-190 165 -247 256 -57 88 -61 101 -33 100 12 0 16 -3 10 -6z m172 -18 c61 -8
126 -15 145 -16 21 -1 27 -3 15 -6 -18 -5 -305 26 -314 33 -8 7 45 3 154 -11z
m7632 -32 c-3 -10 -5 -2 -5 17 0 19 2 27 5 18 2 -10 2 -26 0 -35z m-5300 -10
c-3 -10 -5 -2 -5 17 0 19 2 27 5 18 2 -10 2 -26 0 -35z m5348 -181 c-8 -58
-18 -108 -20 -111 -7 -7 -6 4 10 109 8 52 16 124 17 160 l2 65 3 -58 c2 -32
-3 -106 -12 -165z m-7432 191 c-13 -2 -33 -2 -45 0 -13 2 -3 4 22 4 25 0 35
-2 23 -4z m120 -10 c-18 -2 -48 -2 -65 0 -18 2 -4 4 32 4 36 0 50 -2 33 -4z
m1230 0 c-24 -2 -62 -2 -85 0 -24 2 -5 4 42 4 47 0 66 -2 43 -4z m384 -15 c-3
-8 -6 -5 -6 6 -1 11 2 17 5 13 3 -3 4 -12 1 -19z m-1484 5 c-18 -2 -48 -2 -65
0 -18 2 -4 4 32 4 36 0 50 -2 33 -4z m930 0 c-23 -2 -64 -2 -90 0 -26 2 -7 3
42 3 50 0 71 -1 48 -3z m-335 -10 c-104 -2 -272 -2 -375 0 -104 1 -19 2 187 2
206 0 291 -1 188 -2z m6522 -85 c-16 -94 -23 -81 -8 16 7 42 14 72 17 65 2 -7
-2 -43 -9 -81z m-5262 7 c0 -16 -2 -15 -8 5 -4 14 -8 36 -8 50 0 22 1 22 8 -5
4 -16 8 -39 8 -50z m-361 43 c-3 -8 -6 -5 -6 6 -1 11 2 17 5 13 3 -3 4 -12 1
-19z m567 -277 c9 -24 16 -49 15 -55 -2 -35 -100 304 -98 342 0 9 15 -41 34
-113 18 -71 41 -150 49 -174z m5263 192 c-2 -16 -4 -3 -4 27 0 30 2 43 4 28 2
-16 2 -40 0 -55z m-5788 -58 c-1 -16 -26 57 -32 95 -4 19 2 8 13 -25 11 -33
19 -64 19 -70z m358 -70 c-4 -11 -37 118 -36 137 0 7 9 -18 20 -57 10 -38 17
-74 16 -80z m4870 103 c-3 -8 -6 -5 -6 6 -1 11 2 17 5 13 3 -3 4 -12 1 -19z
m548 -73 c-4 -31 -9 -54 -12 -51 -3 2 -1 30 2 61 4 31 9 54 12 51 3 -2 1 -30
-2 -61z m-231 -14 c-9 -34 -19 -60 -21 -58 -2 3 4 32 13 66 10 33 19 59 21 57
3 -2 -3 -32 -13 -65z m-5468 -188 c-5 -5 -76 207 -75 222 0 6 18 -41 40 -104
21 -63 37 -116 35 -118z m5811 150 c-2 -16 -4 -3 -4 27 0 30 2 43 4 28 2 -16
2 -40 0 -55z m-5451 -220 c-5 -5 -76 207 -75 222 0 6 18 -41 40 -104 21 -63
37 -116 35 -118z m5174 150 c-11 -17 -11 -17 -6 0 3 10 7 28 7 40 2 22 2 22 6
0 2 -12 -1 -30 -7 -40z m135 -20 c-37 -141 -110 -261 -272 -440 -41 -45 -105
-108 -143 -140 -38 -32 -67 -59 -65 -61 4 -5 112 50 208 107 161 96 292 219
348 328 10 20 19 31 19 22 0 -50 -156 -220 -280 -305 -98 -67 -287 -167 -300
-159 -5 3 -10 2 -10 -3 0 -4 -17 -16 -37 -26 -21 -10 -36 -16 -33 -13 3 2 41
33 85 68 167 131 353 347 419 484 19 39 42 102 52 142 10 40 20 70 23 68 2 -3
-4 -35 -14 -72z m-5147 -28 c-1 -31 -16 35 -16 70 0 25 2 24 9 -10 4 -22 8
-49 7 -60z m4902 24 c-32 -81 -102 -209 -150 -275 -101 -135 -270 -288 -408
-366 -40 -23 -50 -33 -40 -40 9 -6 5 -7 -11 -3 -15 5 -21 3 -17 -3 5 -9 -31
-23 -114 -47 -14 -4 23 17 81 47 147 76 257 155 370 268 129 128 224 274 284
433 10 26 20 46 22 44 2 -3 -6 -29 -17 -58z m377 -1 c-2 -13 -4 -3 -4 22 0 25
2 35 4 23 2 -13 2 -33 0 -45z m-287 -35 c-11 -17 -11 -17 -6 0 3 10 6 24 7 30
0 9 2 9 5 0 3 -7 0 -20 -6 -30z m-5026 -33 c5 -17 4 -20 -2 -10 -5 8 -13 26
-16 40 -5 17 -4 20 2 10 5 -8 13 -26 16 -40z m5303 8 c-3 -7 -5 -2 -5 12 0 14
2 19 5 13 2 -7 2 -19 0 -25z m-7152 -231 c165 -104 305 -194 310 -200 15 -15
-43 20 -340 208 -148 94 -296 186 -327 204 -32 18 -58 35 -58 37 0 9 110 -57
415 -249z m1984 -15 c17 -34 29 -62 26 -62 -17 0 -126 272 -125 311 1 8 16
-31 35 -87 18 -55 47 -129 64 -162z m4851 188 c-18 -27 -34 -50 -37 -50 -3 0
5 15 17 33 11 17 26 42 32 55 6 12 13 20 16 17 2 -2 -10 -27 -28 -55z m-5446
0 c5 -17 4 -20 -2 -10 -5 8 -13 26 -16 40 -5 17 -4 20 2 10 5 -8 13 -26 16
-40z m5746 -20 l-11 -25 6 25 c2 14 5 34 6 45 2 19 2 19 6 0 2 -12 -1 -32 -7
-45z m-5226 -77 c87 -207 291 -485 458 -624 32 -27 54 -49 47 -49 -19 0 -221
209 -298 310 -112 145 -230 359 -255 460 -8 32 -1 17 48 -97z m-298 -50 c24
-51 40 -93 38 -93 -7 0 -90 178 -98 210 l-6 25 12 -25 c6 -14 31 -67 54 -117z
m138 77 c5 -17 4 -20 -2 -10 -5 8 -13 26 -16 40 -5 17 -4 20 2 10 5 -8 13 -26
16 -40z m-320 -29 c14 -35 24 -66 22 -68 -3 -4 -56 121 -56 134 0 13 9 -4 34
-66z m5355 22 c-142 -185 -332 -362 -464 -430 -43 -22 -31 -13 65 52 114 77
232 185 326 300 43 52 80 95 83 95 2 0 -3 -8 -10 -17z m-4981 -115 c22 -49 38
-88 36 -88 -6 0 -84 164 -84 176 0 13 6 2 48 -88z m-183 -268 c35 -52 102
-141 149 -198 l86 -102 -43 2 c-37 1 -38 2 -9 5 l32 4 -65 77 c-36 41 -93 115
-128 164 -63 89 -187 304 -187 323 0 5 23 -33 51 -85 28 -52 79 -138 114 -190z
m126 76 c75 -114 233 -301 304 -360 26 -22 64 -45 84 -52 20 -7 28 -13 18 -14
-27 0 -56 17 -125 77 -105 92 -275 307 -346 438 -31 58 -25 49 65 -89z m328
45 c69 -106 190 -232 295 -310 100 -74 114 -92 24 -29 -117 80 -281 255 -357
381 -41 67 -16 39 38 -42z m-138 -85 c77 -117 231 -300 309 -367 l54 -47 -59
10 c-33 5 -62 11 -65 14 -3 3 17 3 43 -1 l49 -8 -53 49 c-107 100 -278 318
-343 439 -31 58 -25 49 65 -89z m-1356 -94 c-4 -5 -214 103 -240 123 -11 8 39
-15 112 -53 72 -37 130 -69 128 -70z m170 -58 c66 -24 115 -43 108 -43 -16 -1
-214 69 -243 86 -15 9 -17 12 -5 7 11 -4 74 -26 140 -50z m5505 36 c-19 -11
-39 -19 -45 -19 -5 0 6 8 25 19 19 11 40 19 45 19 6 0 -6 -8 -25 -19z m-5315
-94 c28 -8 41 -14 30 -14 -21 0 -107 25 -90 27 6 0 33 -6 60 -13z m120 -26
c27 -7 27 -8 5 -8 -14 0 -36 4 -50 8 -20 6 -21 8 -5 8 11 0 34 -4 50 -8z m68
-17 c-7 -2 -19 -2 -25 0 -7 3 -2 5 12 5 14 0 19 -2 13 -5z m60 -10 c-7 -2 -21
-2 -30 0 -10 3 -4 5 12 5 17 0 24 -2 18 -5z m182 -24 c27 -5 17 -6 -33 -2 -40
3 -87 9 -105 14 -40 10 81 0 138 -12z m123 -16 c-16 -2 -40 -2 -55 0 -16 2 -3
4 27 4 30 0 43 -2 28 -4z m1078 -51 c-5 -4 -106 46 -106 53 0 3 25 -7 55 -22
30 -15 53 -29 51 -31z m-817 32 c7 -7 -111 -2 -174 6 -41 6 -24 6 55 3 63 -3
117 -7 119 -9z m708 -30 c-3 -3 -12 -4 -19 -1 -8 3 -5 6 6 6 11 1 17 -2 13 -5z
m174 -23 c18 -8 10 -9 -31 -4 -103 11 -142 22 -64 17 39 -2 82 -8 95 -13z"/>
<path d="M10351 10204 c0 -11 3 -14 6 -6 3 7 2 16 -1 19 -3 4 -6 -2 -5 -13z"/>
<path d="M10678 9933 c-87 -100 -108 -462 -48 -829 11 -67 37 -198 59 -290
111 -476 138 -735 127 -1254 -11 -529 27 -879 99 -906 41 -16 80 41 163 236
118 281 167 493 183 802 16 322 17 1148 1 1283 -41 342 -97 515 -229 714 -127
191 -299 308 -355 244z"/>
<path d="M11371 8694 c0 -11 3 -14 6 -6 3 7 2 16 -1 19 -3 4 -6 -2 -5 -13z"/>
<path d="M11411 8144 c0 -11 3 -14 6 -6 3 7 2 16 -1 19 -3 4 -6 -2 -5 -13z"/>
<path d="M11432 7830 c0 -14 2 -19 5 -12 2 6 2 18 0 25 -3 6 -5 1 -5 -13z"/>
<path d="M11452 7480 c0 -14 2 -19 5 -12 2 6 2 18 0 25 -3 6 -5 1 -5 -13z"/>
<path d="M11472 6960 c0 -19 2 -27 5 -17 2 9 2 25 0 35 -3 9 -5 1 -5 -18z"/>
<path d="M10701 6954 c0 -11 3 -14 6 -6 3 7 2 16 -1 19 -3 4 -6 -2 -5 -13z"/>
<path d="M10712 6790 c0 -14 2 -19 5 -12 2 6 2 18 0 25 -3 6 -5 1 -5 -13z"/>
<path d="M10722 6470 c0 -14 2 -19 5 -12 2 6 2 18 0 25 -3 6 -5 1 -5 -13z"/>
<path d="M10732 6290 c0 -14 2 -19 5 -12 2 6 2 18 0 25 -3 6 -5 1 -5 -13z"/>
<path d="M11471 6054 c0 -11 3 -14 6 -6 3 7 2 16 -1 19 -3 4 -6 -2 -5 -13z"/>
<path d="M10741 5984 c0 -11 3 -14 6 -6 3 7 2 16 -1 19 -3 4 -6 -2 -5 -13z"/>
<path d="M10751 5844 c0 -11 3 -14 6 -6 3 7 2 16 -1 19 -3 4 -6 -2 -5 -13z"/>
<path d="M2333 9593 c9 -2 25 -2 35 0 9 3 1 5 -18 5 -19 0 -27 -2 -17 -5z"/>
<path d="M2548 9593 c29 -2 74 -2 100 0 26 2 2 3 -53 3 -55 0 -76 -1 -47 -3z"/>
<path d="M2448 9583 c6 -2 18 -2 25 0 6 3 1 5 -13 5 -14 0 -19 -2 -12 -5z"/>
<path d="M2745 9583 c-146 -5 -527 -24 -690 -34 l-169 -11 -121 -100 c-66 -55
-121 -103 -123 -107 -1 -4 14 -5 34 -3 l37 5 -55 -69 c-201 -250 -328 -590
-377 -1009 -16 -130 -13 -458 4 -614 42 -377 137 -657 300 -887 95 -133 270
-282 380 -323 175 -65 585 -86 1146 -56 476 24 698 50 822 94 196 68 344 228
399 427 18 68 21 107 22 284 0 172 -5 248 -31 470 -18 146 -39 342 -48 435
-20 208 -40 348 -115 802 -67 399 -76 428 -169 522 -66 67 -159 117 -246 131
-33 5 -121 14 -195 19 -74 6 -155 14 -180 20 -40 9 -430 12 -625 4z m722 -90
c229 -76 291 -161 338 -463 24 -154 35 -322 35 -532 l0 -198 -33 0 -34 0 -6
113 c-4 61 -7 156 -7 209 0 102 -20 283 -46 408 -28 135 -81 220 -179 284
-139 93 -216 101 -900 99 -302 -1 -611 -5 -685 -10 -74 -5 -136 -8 -138 -7 -1
1 20 20 47 43 l49 42 269 14 c501 28 628 33 913 31 l285 -2 92 -31z m268 -9
c114 -14 233 -101 284 -207 26 -53 39 -112 86 -402 79 -487 92 -575 115 -810
11 -115 29 -286 40 -380 38 -323 43 -399 37 -565 -5 -174 -17 -230 -64 -325
-52 -104 -123 -175 -234 -234 -84 -45 -153 -64 -315 -85 -347 -46 -1111 -71
-1389 -46 -238 22 -320 44 -425 118 -356 251 -543 744 -543 1427 1 255 17 397
73 615 72 286 197 535 344 686 l61 62 335 11 c600 20 1043 13 1210 -20 125
-25 239 -116 279 -223 39 -104 61 -274 73 -553 l11 -262 -32 -40 c-42 -52 -86
-152 -102 -228 -14 -70 -3 -112 36 -133 l23 -12 -19 -55 c-58 -171 -69 -293
-31 -355 37 -59 106 -88 213 -88 79 0 93 3 150 33 34 17 75 49 92 69 49 61 47
98 -15 286 -44 135 -50 162 -37 162 9 0 27 9 40 19 19 15 23 28 23 61 -2 53
-63 177 -115 232 l-39 41 0 202 c0 319 -29 593 -80 757 -27 87 -82 168 -150
219 l-54 41 34 -6 c19 -3 58 -8 85 -12z m162 -1287 c60 -68 113 -181 94 -200
-5 -5 -30 2 -63 18 -29 15 -65 31 -80 35 -43 13 -96 -7 -148 -56 -77 -72 -86
-57 -45 74 14 43 38 98 55 120 30 42 31 42 94 42 60 0 66 -2 93 -33z m-36
-213 c19 -9 37 -31 49 -60 30 -68 110 -326 110 -351 0 -31 -52 -87 -104 -112
-31 -16 -62 -21 -117 -21 -93 0 -137 20 -163 73 -17 35 -17 46 -7 110 7 40 30
127 53 194 33 101 46 128 75 153 38 34 61 37 104 14z"/>
<path d="M2143 9333 c9 -2 23 -2 30 0 6 3 -1 5 -18 5 -16 0 -22 -2 -12 -5z"/>
<path d="M3178 9333 c7 -3 16 -2 19 1 4 3 -2 6 -13 5 -11 0 -14 -3 -6 -6z"/>
<path d="M1968 9323 c7 -3 16 -2 19 1 4 3 -2 6 -13 5 -11 0 -14 -3 -6 -6z"/>
<path d="M1848 9089 c-42 -21 -102 -97 -141 -175 -65 -129 -140 -414 -178
-669 -8 -53 -14 -173 -13 -290 0 -169 4 -225 27 -363 33 -203 57 -274 162
-487 122 -248 199 -356 284 -399 61 -32 164 -61 286 -82 167 -28 598 -23 1250
16 284 18 441 55 524 127 91 77 53 102 -309 198 -319 85 -456 206 -419 372 6
26 13 80 16 118 5 66 3 72 -22 97 -52 52 -117 50 -400 -14 -197 -44 -309 -53
-340 -28 -43 36 -47 69 -40 334 8 268 3 317 -36 352 -36 32 -86 23 -201 -39
-171 -91 -247 -103 -291 -45 -31 41 -37 112 -23 275 15 167 5 608 -14 659 -26
66 -58 78 -122 43z"/>
<path d="M3891 8924 c0 -11 3 -14 6 -6 3 7 2 16 -1 19 -3 4 -6 -2 -5 -13z"/>
<path d="M3913 8650 c0 -25 2 -35 4 -22 2 12 2 32 0 45 -2 12 -4 2 -4 -23z"/>
<path d="M3912 8340 c0 -19 2 -27 5 -17 2 9 2 25 0 35 -3 9 -5 1 -5 -18z"/>
<path d="M4191 8144 c0 -11 3 -14 6 -6 3 7 2 16 -1 19 -3 4 -6 -2 -5 -13z"/>
<path d="M3552 7975 c0 -16 2 -22 5 -12 2 9 2 23 0 30 -3 6 -5 -1 -5 -18z"/>
<path d="M4231 7754 c0 -11 3 -14 6 -6 3 7 2 16 -1 19 -3 4 -6 -2 -5 -13z"/>
<path d="M4091 7594 c0 -11 3 -14 6 -6 3 7 2 16 -1 19 -3 4 -6 -2 -5 -13z"/>
<path d="M4271 7404 c0 -11 3 -14 6 -6 3 7 2 16 -1 19 -3 4 -6 -2 -5 -13z"/>
<path d="M3418 6463 c7 -3 16 -2 19 1 4 3 -2 6 -13 5 -11 0 -14 -3 -6 -6z"/>
<path d="M2278 6443 c7 -3 16 -2 19 1 4 3 -2 6 -13 5 -11 0 -14 -3 -6 -6z"/>
<path d="M3078 6443 c7 -3 16 -2 19 1 4 3 -2 6 -13 5 -11 0 -14 -3 -6 -6z"/>
<path d="M2638 6433 c12 -2 30 -2 40 0 9 3 -1 5 -23 4 -22 0 -30 -2 -17 -4z"/>
<path d="M3764 7720 c-29 -11 -74 -67 -75 -93 -2 -41 3 -62 23 -94 57 -93 238
-37 238 74 0 47 -31 100 -66 113 -30 12 -91 12 -120 0z m104 -66 c42 -29 23
-87 -35 -103 -49 -14 -83 6 -83 49 0 59 67 90 118 54z"/>
<path d="M3418 9583 c7 -3 16 -2 19 1 4 3 -2 6 -13 5 -11 0 -14 -3 -6 -6z"/>
<path d="M2108 9573 c7 -3 16 -2 19 1 4 3 -2 6 -13 5 -11 0 -14 -3 -6 -6z"/>
<path d="M2188 9573 c7 -3 16 -2 19 1 4 3 -2 6 -13 5 -11 0 -14 -3 -6 -6z"/>
<path d="M3503 9573 c9 -2 23 -2 30 0 6 3 -1 5 -18 5 -16 0 -22 -2 -12 -5z"/>
<path d="M3758 9573 c6 -2 18 -2 25 0 6 3 1 5 -13 5 -14 0 -19 -2 -12 -5z"/>
<path d="M2043 9563 c9 -2 25 -2 35 0 9 3 1 5 -18 5 -19 0 -27 -2 -17 -5z"/>
<path d="M4191 8774 c0 -11 3 -14 6 -6 3 7 2 16 -1 19 -3 4 -6 -2 -5 -13z"/>
<path d="M4212 8665 c0 -16 2 -22 5 -12 2 9 2 23 0 30 -3 6 -5 -1 -5 -18z"/>
<path d="M4222 8610 c0 -14 2 -19 5 -12 2 6 2 18 0 25 -3 6 -5 1 -5 -13z"/>
<path d="M4232 8530 c0 -14 2 -19 5 -12 2 6 2 18 0 25 -3 6 -5 1 -5 -13z"/>
<path d="M4242 8470 c0 -14 2 -19 5 -12 2 6 2 18 0 25 -3 6 -5 1 -5 -13z"/>
<path d="M4251 8394 c0 -11 3 -14 6 -6 3 7 2 16 -1 19 -3 4 -6 -2 -5 -13z"/>
<path d="M4262 8330 c0 -14 2 -19 5 -12 2 6 2 18 0 25 -3 6 -5 1 -5 -13z"/>
<path d="M4272 8245 c0 -16 2 -22 5 -12 2 9 2 23 0 30 -3 6 -5 -1 -5 -18z"/>
<path d="M4282 8170 c0 -19 2 -27 5 -17 2 9 2 25 0 35 -3 9 -5 1 -5 -18z"/>
<path d="M4293 8055 c0 -22 2 -30 4 -17 2 12 2 30 0 40 -3 9 -5 -1 -4 -23z"/>
<path d="M4302 7980 c0 -19 2 -27 5 -17 2 9 2 25 0 35 -3 9 -5 1 -5 -18z"/>
<path d="M4313 7870 c0 -25 2 -35 4 -22 2 12 2 32 0 45 -2 12 -4 2 -4 -23z"/>
<path d="M4333 7690 c0 -25 2 -35 4 -22 2 12 2 32 0 45 -2 12 -4 2 -4 -23z"/>
<path d="M1261 7694 c0 -11 3 -14 6 -6 3 7 2 16 -1 19 -3 4 -6 -2 -5 -13z"/>
<path d="M4342 7605 c0 -16 2 -22 5 -12 2 9 2 23 0 30 -3 6 -5 -1 -5 -18z"/>
<path d="M4352 7500 c0 -19 2 -27 5 -17 2 9 2 25 0 35 -3 9 -5 1 -5 -18z"/>
<path d="M4362 7420 c0 -19 2 -27 5 -17 2 9 2 25 0 35 -3 9 -5 1 -5 -18z"/>
<path d="M4374 7135 c0 -77 2 -107 3 -67 2 40 2 103 0 140 -2 37 -3 4 -3 -73z"/>
<path d="M3543 6383 c9 -2 23 -2 30 0 6 3 -1 5 -18 5 -16 0 -22 -2 -12 -5z"/>
<path d="M7718 7533 c12 -2 32 -2 45 0 12 2 2 4 -23 4 -25 0 -35 -2 -22 -4z"/>
<path d="M8303 7533 c9 -2 25 -2 35 0 9 3 1 5 -18 5 -19 0 -27 -2 -17 -5z"/>
<path d="M7458 7523 c7 -3 16 -2 19 1 4 3 -2 6 -13 5 -11 0 -14 -3 -6 -6z"/>
<path d="M7133 7513 c9 -2 23 -2 30 0 6 3 -1 5 -18 5 -16 0 -22 -2 -12 -5z"/>
<path d="M8588 7513 c7 -3 16 -2 19 1 4 3 -2 6 -13 5 -11 0 -14 -3 -6 -6z"/>
<path d="M6958 7503 c7 -3 16 -2 19 1 4 3 -2 6 -13 5 -11 0 -14 -3 -6 -6z"/>
<path d="M6648 7493 c7 -3 16 -2 19 1 4 3 -2 6 -13 5 -11 0 -14 -3 -6 -6z"/>
<path d="M6573 7263 c-39 -59 -29 -169 52 -583 57 -288 66 -364 72 -592 6
-221 -4 -355 -33 -469 -19 -77 -18 -121 5 -146 17 -18 36 -20 186 -26 251 -10
1278 -8 1535 3 925 40 1230 90 1230 203 0 57 -61 71 -470 112 -526 52 -742 87
-907 147 -104 38 -117 50 -268 258 -64 89 -142 190 -172 226 -55 65 -124 114
-160 114 -43 0 -75 -62 -88 -170 -34 -278 -209 -119 -640 580 -157 255 -191
305 -230 339 -46 40 -88 42 -112 4z"/>
<path d="M10031 7154 c0 -11 3 -14 6 -6 3 7 2 16 -1 19 -3 4 -6 -2 -5 -13z"/>
<path d="M10051 6914 c0 -11 3 -14 6 -6 3 7 2 16 -1 19 -3 4 -6 -2 -5 -13z"/>
<path d="M6531 6684 c0 -11 3 -14 6 -6 3 7 2 16 -1 19 -3 4 -6 -2 -5 -13z"/>
<path d="M10071 6634 c0 -11 3 -14 6 -6 3 7 2 16 -1 19 -3 4 -6 -2 -5 -13z"/>
<path d="M6551 6504 c0 -11 3 -14 6 -6 3 7 2 16 -1 19 -3 4 -6 -2 -5 -13z"/>
<path d="M6571 6314 c0 -11 3 -14 6 -6 3 7 2 16 -1 19 -3 4 -6 -2 -5 -13z"/>
<path d="M10092 6300 c0 -14 2 -19 5 -12 2 6 2 18 0 25 -3 6 -5 1 -5 -13z"/>
<path d="M6592 6075 c0 -16 2 -22 5 -12 2 9 2 23 0 30 -3 6 -5 -1 -5 -18z"/>
<path d="M8793 5323 c59 -2 155 -2 215 0 59 1 10 3 -108 3 -118 0 -167 -2
-107 -3z"/>
<path d="M7908 5303 c7 -3 16 -2 19 1 4 3 -2 6 -13 5 -11 0 -14 -3 -6 -6z"/>
<path d="M7578 5283 c7 -3 16 -2 19 1 4 3 -2 6 -13 5 -11 0 -14 -3 -6 -6z"/>
<path d="M7163 5263 c9 -2 23 -2 30 0 6 3 -1 5 -18 5 -16 0 -22 -2 -12 -5z"/>
<path d="M6693 5253 c9 -2 25 -2 35 0 9 3 1 5 -18 5 -19 0 -27 -2 -17 -5z"/>
<path d="M6371 7264 c0 -11 3 -14 6 -6 3 7 2 16 -1 19 -3 4 -6 -2 -5 -13z"/>
<path d="M5773 7235 c0 -22 2 -30 4 -17 2 12 2 30 0 40 -3 9 -5 -1 -4 -23z"/>
<path d="M5992 7050 c0 -19 2 -27 5 -17 2 9 2 25 0 35 -3 9 -5 1 -5 -18z"/>
<path d="M5493 6815 c0 -38 2 -53 4 -32 2 20 2 52 0 70 -2 17 -4 1 -4 -38z"/>
<path d="M5793 6735 c0 -22 2 -30 4 -17 2 12 2 30 0 40 -3 9 -5 -1 -4 -23z"/>
<path d="M6012 6600 c0 -19 2 -27 5 -17 2 9 2 25 0 35 -3 9 -5 1 -5 -18z"/>
<path d="M6451 6604 c0 -11 3 -14 6 -6 3 7 2 16 -1 19 -3 4 -6 -2 -5 -13z"/>
<path d="M6491 6214 c0 -11 3 -14 6 -6 3 7 2 16 -1 19 -3 4 -6 -2 -5 -13z"/>
<path d="M5511 6124 c0 -11 3 -14 6 -6 3 7 2 16 -1 19 -3 4 -6 -2 -5 -13z"/>
<path d="M5826 5989 c-71 -56 -73 -155 -4 -203 51 -36 172 -5 197 51 26 58 3
140 -46 162 -41 19 -117 14 -147 -10z m145 -66 c5 -13 9 -31 9 -39 0 -20 -37
-54 -59 -54 -16 0 -20 9 -23 61 -1 33 -2 62 -1 63 2 1 17 1 34 -2 21 -3 33
-12 40 -29z m-124 -46 c2 -30 0 -38 -7 -27 -14 22 -11 71 4 70 1 0 2 -19 3
-43z"/>
<path d="M1908 6153 c6 -2 18 -2 25 0 6 3 1 5 -13 5 -14 0 -19 -2 -12 -5z"/>
<path d="M2123 6153 c9 -2 23 -2 30 0 6 3 -1 5 -18 5 -16 0 -22 -2 -12 -5z"/>
<path d="M2478 6133 c7 -3 16 -2 19 1 4 3 -2 6 -13 5 -11 0 -14 -3 -6 -6z"/>
<path d="M2220 6039 c-212 -20 -330 -62 -418 -149 -125 -123 -188 -302 -222
-635 -13 -127 -13 -563 0 -850 5 -121 14 -344 20 -495 14 -379 27 -490 85
-735 55 -234 175 -585 251 -736 92 -185 227 -290 477 -374 177 -59 582 -143
779 -160 69 -7 78 -5 85 10 8 24 -17 43 -181 141 -537 319 -607 366 -736 494
-94 93 -116 131 -174 299 -226 649 -250 1742 -56 2488 39 149 72 215 146 290
113 113 251 161 562 194 239 25 282 38 282 83 0 90 -258 148 -644 145 -94 -1
-209 -5 -256 -10z"/>
<path d="M4313 5825 c0 -22 2 -30 4 -17 2 12 2 30 0 40 -3 9 -5 -1 -4 -23z"/>
<path d="M4312 5695 c0 -16 2 -22 5 -12 2 9 2 23 0 30 -3 6 -5 -1 -5 -18z"/>
<path d="M1411 5354 c0 -11 3 -14 6 -6 3 7 2 16 -1 19 -3 4 -6 -2 -5 -13z"/>
<path d="M1394 4770 c0 -107 2 -151 3 -97 2 53 2 141 0 195 -1 53 -3 9 -3 -98z"/>
<path d="M3092 4640 c0 -14 2 -19 5 -12 2 6 2 18 0 25 -3 6 -5 1 -5 -13z"/>
<path d="M3312 4320 c0 -19 2 -27 5 -17 2 9 2 25 0 35 -3 9 -5 1 -5 -18z"/>
<path d="M3081 4304 c0 -11 3 -14 6 -6 3 7 2 16 -1 19 -3 4 -6 -2 -5 -13z"/>
<path d="M1402 4205 c0 -16 2 -22 5 -12 2 9 2 23 0 30 -3 6 -5 -1 -5 -18z"/>
<path d="M4051 4054 c0 -11 3 -14 6 -6 3 7 2 16 -1 19 -3 4 -6 -2 -5 -13z"/>
<path d="M3701 3913 c-20 -38 -40 -127 -51 -223 -10 -85 -10 -115 5 -204 21
-125 15 -152 -49 -223 -92 -103 -91 -125 20 -280 104 -144 158 -273 213 -507
20 -84 34 -116 51 -116 41 0 48 315 13 560 -12 85 -27 225 -32 310 -9 138 -46
408 -72 530 -14 67 -59 170 -75 170 -7 0 -17 -8 -23 -17z"/>
<path d="M1411 3714 c0 -11 3 -14 6 -6 3 7 2 16 -1 19 -3 4 -6 -2 -5 -13z"/>
<path d="M4033 3660 c0 -30 2 -43 4 -27 2 15 2 39 0 55 -2 15 -4 2 -4 -28z"/>
<path d="M3148 3173 c7 -3 16 -2 19 1 4 3 -2 6 -13 5 -11 0 -14 -3 -6 -6z"/>
<path d="M4033 3060 c0 -30 2 -43 4 -27 2 15 2 39 0 55 -2 15 -4 2 -4 -28z"/>
<path d="M3753 1970 c0 -25 2 -35 4 -22 2 12 2 32 0 45 -2 12 -4 2 -4 -23z"/>
<path d="M3118 1743 c7 -3 16 -2 19 1 4 3 -2 6 -13 5 -11 0 -14 -3 -6 -6z"/>
<path d="M3798 1743 c6 -2 18 -2 25 0 6 3 1 5 -13 5 -14 0 -19 -2 -12 -5z"/>
<path d="M10901 5124 c0 -11 3 -14 6 -6 3 7 2 16 -1 19 -3 4 -6 -2 -5 -13z"/>
<path d="M11088 4993 c-41 -48 -42 -54 -50 -528 -9 -455 -6 -505 23 -505 7 0
46 34 88 75 41 41 79 75 83 75 20 0 26 -61 32 -325 8 -313 17 -436 46 -608 23
-134 71 -294 99 -328 40 -49 58 -8 84 189 18 142 17 1400 -1 1497 -35 181
-171 397 -290 459 -41 21 -95 20 -114 -1z"/>
<path d="M10912 4945 c0 -16 2 -22 5 -12 2 9 2 23 0 30 -3 6 -5 -1 -5 -18z"/>
<path d="M10912 4530 c0 -19 2 -27 5 -17 2 9 2 25 0 35 -3 9 -5 1 -5 -18z"/>
<path d="M10901 4384 c0 -11 3 -14 6 -6 3 7 2 16 -1 19 -3 4 -6 -2 -5 -13z"/>
<path d="M11613 4190 c0 -25 2 -35 4 -22 2 12 2 32 0 45 -2 12 -4 2 -4 -23z"/>
<path d="M10793 3650 c0 -25 2 -35 4 -22 2 12 2 32 0 45 -2 12 -4 2 -4 -23z"/>
<path d="M10783 3310 c0 -25 2 -35 4 -22 2 12 2 32 0 45 -2 12 -4 2 -4 -23z"/>
<path d="M11613 3285 c0 -27 2 -38 4 -22 2 15 2 37 0 50 -2 12 -4 0 -4 -28z"/>
<path d="M10772 2820 c0 -19 2 -27 5 -17 2 9 2 25 0 35 -3 9 -5 1 -5 -18z"/>
<path d="M10762 2580 c0 -19 2 -27 5 -17 2 9 2 25 0 35 -3 9 -5 1 -5 -18z"/>
<path d="M10753 2115 c0 -22 2 -30 4 -17 2 12 2 30 0 40 -3 9 -5 -1 -4 -23z"/>
<path d="M7988 3833 c39 -2 105 -2 145 0 39 1 7 3 -73 3 -80 0 -112 -2 -72 -3z"/>
<path d="M7728 3823 c7 -3 16 -2 19 1 4 3 -2 6 -13 5 -11 0 -14 -3 -6 -6z"/>
<path d="M8428 3823 c6 -2 18 -2 25 0 6 3 1 5 -13 5 -14 0 -19 -2 -12 -5z"/>
<path d="M7518 3813 c7 -3 16 -2 19 1 4 3 -2 6 -13 5 -11 0 -14 -3 -6 -6z"/>
<path d="M6900 3623 c-177 -27 -429 -118 -684 -245 -203 -101 -285 -169 -413
-341 -184 -248 -255 -411 -297 -682 -30 -195 -93 -812 -83 -821 2 -2 20 83 41
189 50 250 134 581 186 732 102 294 222 468 405 592 233 156 439 240 844 344
273 70 311 86 311 129 0 74 -157 127 -310 103z"/>
<path d="M10213 1800 c0 -30 2 -43 4 -27 2 15 2 39 0 55 -2 15 -4 2 -4 -28z"/>
<path d="M5333 1735 c0 -33 2 -45 4 -27 2 18 2 45 0 60 -2 15 -4 0 -4 -33z"/>
<path d="M5612 1750 c0 -14 2 -19 5 -12 2 6 2 18 0 25 -3 6 -5 1 -5 -13z"/>
<path d="M9982 1710 c0 -14 2 -19 5 -12 2 6 2 18 0 25 -3 6 -5 1 -5 -13z"/>
<path d="M5331 1234 c0 -11 3 -14 6 -6 3 7 2 16 -1 19 -3 4 -6 -2 -5 -13z"/>
<path d="M3148 3525 c-16 -9 -37 -34 -49 -57 -26 -51 -20 -95 20 -137 25 -27
36 -31 83 -31 63 0 109 25 133 70 21 40 12 101 -19 137 -19 22 -33 27 -82 30
-40 2 -68 -2 -86 -12z m132 -64 c15 -29 12 -62 -7 -83 -25 -28 -42 -22 -48 20
-3 20 -8 47 -11 60 -4 19 0 22 25 22 20 0 34 -7 41 -19z m-116 -90 c-8 -9 -23
50 -17 66 5 13 9 7 14 -22 4 -22 5 -42 3 -44z"/>
<path d="M8378 3073 c6 -2 18 -2 25 0 6 3 1 5 -13 5 -14 0 -19 -2 -12 -5z"/>
<path d="M8338 1793 c7 -3 16 -2 19 1 4 3 -2 6 -13 5 -11 0 -14 -3 -6 -6z"/>
<path d="M5971 1634 c0 -11 3 -14 6 -6 3 7 2 16 -1 19 -3 4 -6 -2 -5 -13z"/>
<path d="M9832 1620 c0 -14 2 -19 5 -12 2 6 2 18 0 25 -3 6 -5 1 -5 -13z"/>
<path d="M9831 1314 c0 -11 3 -14 6 -6 3 7 2 16 -1 19 -3 4 -6 -2 -5 -13z"/>
<path d="M8628 283 c7 -3 16 -2 19 1 4 3 -2 6 -13 5 -11 0 -14 -3 -6 -6z"/>
<path d="M8118 243 c7 -3 16 -2 19 1 4 3 -2 6 -13 5 -11 0 -14 -3 -6 -6z"/>
<path d="M7788 223 c6 -2 18 -2 25 0 6 3 1 5 -13 5 -14 0 -19 -2 -12 -5z"/>
<path d="M7448 213 c6 -2 18 -2 25 0 6 3 1 5 -13 5 -14 0 -19 -2 -12 -5z"/>
<path d="M6808 203 c7 -3 16 -2 19 1 4 3 -2 6 -13 5 -11 0 -14 -3 -6 -6z"/>
<path d="M7168 203 c12 -2 30 -2 40 0 9 3 -1 5 -23 4 -22 0 -30 -2 -17 -4z"/>
<path d="M7720 2533 c-42 -29 -59 -57 -60 -95 0 -80 47 -128 128 -128 81 0
132 48 132 125 0 51 -15 74 -63 96 -52 23 -105 24 -137 2z m125 -63 c20 -17
19 -59 -2 -82 -20 -23 -85 -24 -107 -2 -21 21 -20 63 1 87 14 15 27 18 56 14
21 -3 44 -11 52 -17z"/>
<path d="M7732 2430 c0 -14 2 -19 5 -12 2 6 2 18 0 25 -3 6 -5 1 -5 -13z"/>
<path d="M8377 2176 c-65 -18 -98 -52 -104 -108 -6 -55 15 -101 57 -123 39
-20 73 -19 121 5 73 38 98 113 59 177 -15 26 -68 65 -82 62 -2 0 -25 -6 -51
-13z m75 -73 c26 -23 22 -50 -11 -84 -33 -33 -66 -37 -93 -12 -18 16 -24 59
-10 79 23 34 85 44 114 17z"/>
</g>
</svg>
